<?xml version="1.0" standalone="no"?>
<!DOCTYPE svg PUBLIC "-//W3C//DTD SVG 20010904//EN"
 "http://www.w3.org/TR/2001/REC-SVG-20010904/DTD/svg10.dtd">
<svg version="1.0" xmlns="http://www.w3.org/2000/svg"
 width="128.000000pt" height="128.000000pt" viewBox="0 0 128.000000 128.000000"
 preserveAspectRatio="xMidYMid meet">
<metadata>
Created by potrace 1.14, written by Peter Selinger 2001-2017
</metadata>
<g transform="translate(0.000000,128.000000) scale(0.100000,-0.100000)"
fill="#000000" stroke="none">
<path d="M226 1249 c-65 -51 -93 -195 -65 -324 7 -33 13 -107 14 -164 l0 -103
47 -42 c43 -38 47 -46 54 -101 17 -140 15 -151 -30 -161 -48 -10 -125 -55
-148 -87 -27 -37 -28 -99 -3 -128 15 -16 28 -20 55 -17 19 3 46 2 60 -2 14 -4
39 -1 57 6 31 12 32 12 38 -16 3 -15 14 -35 23 -43 54 -49 220 -75 283 -43 28
14 34 14 62 0 39 -21 162 -14 225 11 46 19 82 57 82 86 0 21 11 24 26 9 5 -5
21 -10 34 -10 14 0 48 0 77 0 51 0 82 16 84 43 0 7 2 22 3 34 7 58 -61 126
-152 154 -62 18 -64 24 -47 164 6 55 11 63 53 102 l47 41 -2 79 c-1 43 5 116
13 162 38 200 -13 372 -110 371 -64 -1 -114 -70 -176 -245 -45 -126 -65 -161
-90 -159 -8 1 -63 2 -121 3 l-107 1 -20 48 c-11 26 -27 72 -37 102 -28 85 -84
192 -119 222 -37 33 -74 35 -110 7z m97 -57 c29 -30 34 -48 15 -54 -9 -3 -9
-11 0 -34 19 -46 23 -72 29 -184 5 -103 5 -106 -22 -135 -36 -41 -65 -99 -65
-130 0 -31 -10 -32 -43 -1 -26 24 -27 27 -22 120 2 55 0 108 -6 123 -17 46
-20 177 -5 228 30 98 69 120 119 67z m735 -24 c31 -61 37 -129 21 -219 -8 -41
-14 -120 -14 -176 0 -94 -2 -103 -24 -124 -19 -18 -25 -19 -32 -8 -5 8 -9 20
-9 27 0 21 -38 89 -66 117 -24 24 -25 31 -23 113 2 75 9 125 36 230 11 44 -15
21 -37 -34 -25 -60 -30 -86 -34 -186 -1 -38 -4 -70 -7 -72 -2 -2 -19 3 -36 10
l-33 14 24 52 c14 29 41 95 62 147 66 162 127 201 172 109z m-648 -145 c23
-60 48 -120 57 -136 14 -27 14 -28 -14 -37 -15 -6 -32 -11 -37 -13 -5 -1 -10
34 -12 78 -3 88 -5 100 -28 164 -17 47 -18 51 -12 51 2 0 23 -48 46 -107z
m425 -238 c104 -44 136 -114 129 -279 -3 -58 0 -131 5 -163 9 -52 3 -124 -12
-140 -8 -7 -60 23 -89 52 -15 14 -36 45 -48 68 -27 52 -47 75 -82 93 -29 15
-141 21 -177 9 -36 -11 -78 -53 -99 -99 -22 -46 -63 -91 -104 -112 -25 -13
-28 -12 -39 8 -7 12 -11 43 -10 68 1 25 3 117 4 205 2 148 4 163 25 198 29 46
74 81 128 98 61 21 317 17 369 -6z m-270 -405 c-3 -5 -12 -10 -18 -10 -7 0 -6
4 3 10 19 12 23 12 15 0z m231 -85 c8 -16 22 -42 32 -57 14 -23 15 -32 5 -58
-10 -27 -9 -30 8 -30 11 0 22 7 25 15 11 27 26 16 22 -15 -5 -35 17 -42 27
-10 8 25 25 17 25 -12 0 -47 -86 -80 -209 -80 -61 0 -76 18 -74 91 2 72 24
119 64 133 23 8 29 16 29 40 0 16 -5 39 -11 51 -7 16 -2 13 16 -8 14 -16 33
-43 41 -60z m-261 28 c0 -30 5 -39 30 -53 40 -22 58 -63 59 -132 0 -76 -14
-90 -85 -89 -106 2 -186 30 -195 68 -10 36 13 53 25 20 6 -15 18 -27 26 -27
12 0 13 4 6 18 -11 21 -11 62 0 62 4 0 10 -9 14 -19 7 -23 32 -34 41 -20 3 6
1 16 -5 22 -6 6 -11 18 -11 28 0 16 81 159 90 159 3 0 5 -16 5 -37z m-264 -45
c3 -56 -3 -102 -13 -115 -20 -25 -48 -14 -66 25 l-17 37 -3 -36 c-5 -65 -62
-51 -62 14 0 32 28 63 81 87 64 29 79 26 80 -12z m817 12 c47 -21 64 -35 79
-65 12 -26 11 -35 -8 -62 -19 -28 -39 -16 -44 27 -7 55 -23 56 -27 2 -2 -34
-23 -48 -57 -37 -20 6 -29 56 -23 123 4 38 18 40 80 12z"/>
<path d="M433 702 c-34 -3 -40 -11 -23 -28 5 -5 11 -42 14 -82 4 -75 15 -98
51 -112 62 -23 105 24 105 114 0 31 5 65 12 76 7 10 10 21 8 24 -6 5 -38 9
-67 7 -27 -1 -31 -27 -5 -35 14 -5 17 -16 16 -63 -2 -75 -1 -71 -24 -83 -14
-8 -26 -8 -40 0 -17 9 -20 21 -20 76 0 48 4 66 15 70 18 7 20 30 3 36 -7 2
-28 2 -45 0z"/>
<path d="M728 702 c-25 -2 -38 -8 -38 -18 0 -8 5 -14 10 -14 14 0 13 -143 -1
-157 -20 -20 1 -33 51 -33 68 0 99 14 115 53 20 47 5 133 -26 152 -19 12 -72
20 -111 17z m95 -60 c22 -19 23 -85 1 -106 -22 -22 -74 -21 -75 2 -5 90 -3
117 11 123 18 8 39 1 63 -19z"/>
</g>
</svg>
