<?xml version="1.0" standalone="no"?>
<!DOCTYPE svg PUBLIC "-//W3C//DTD SVG 20010904//EN"
 "http://www.w3.org/TR/2001/REC-SVG-20010904/DTD/svg10.dtd">
<svg version="1.0" xmlns="http://www.w3.org/2000/svg"
 width="4167.000000pt" height="4167.000000pt" viewBox="0 0 4167.000000 4167.000000"
 preserveAspectRatio="xMidYMid meet">
<metadata>
Created by potrace 1.14, written by Peter Selinger 2001-2017
</metadata>
<g transform="translate(0.000000,4167.000000) scale(0.100000,-0.100000)"
fill="#000000" stroke="none">
<path d="M13461 33329 c-1385 -72 -2703 -685 -3655 -1698 -382 -407 -666 -817
-916 -1326 -335 -680 -509 -1355 -550 -2125 -14 -267 -14 -14407 0 -14685 60
-1201 488 -2297 1260 -3226 131 -156 508 -535 660 -660 497 -413 1037 -727
1611 -938 443 -163 869 -260 1379 -313 102 -11 1511 -13 7590 -13 7150 0 7472
1 7630 18 1120 124 2105 544 2960 1265 165 140 489 464 624 627 719 863 1130
1830 1253 2945 17 158 18 480 18 7630 0 6079 -2 7488 -13 7590 -20 187 -50
400 -78 540 -179 908 -568 1721 -1173 2450 -125 152 -504 529 -660 660 -805
668 -1751 1085 -2771 1220 -345 46 118 43 -7700 45 -4023 1 -7384 -1 -7469 -6z
m1549 -11229 l0 -5210 915 0 915 0 0 5210 0 5210 3683 0 c2304 0 3747 -4 3857
-10 1255 -71 2423 -594 3310 -1480 774 -774 1275 -1771 1434 -2850 52 -353 51
-312 51 -2120 0 -1795 0 -1784 -50 -2130 -137 -944 -520 -1801 -1136 -2541
-132 -158 -459 -486 -614 -615 -722 -602 -1533 -977 -2440 -1129 -368 -62
-250 -58 -2172 -62 l-1763 -4 0 103 c0 237 37 557 92 798 220 968 840 1552
1821 1714 230 38 328 46 747 56 387 10 501 17 750 46 1008 117 1799 453 2364
1003 161 158 267 286 398 481 350 524 530 1137 564 1920 l6 155 -1287 330
c-707 182 -1290 332 -1294 335 -4 3 -3 57 2 120 19 249 -4 617 -54 870 -205
1025 -904 1774 -1996 2139 -403 134 -833 208 -1360 233 -163 8 -253 16 -253
23 0 5 110 384 244 840 l244 830 -46 3 c-68 5 -274 -15 -442 -44 -738 -124
-1452 -515 -2032 -1112 l-108 -111 0 -5365 0 -5366 -2422 2 -2423 3 -136 27
c-568 114 -1038 397 -1391 838 -263 328 -433 740 -483 1168 -13 111 -15 814
-15 5514 l0 5388 1260 0 1260 0 0 -5210z m8377 595 c146 -46 271 -152 339
-286 195 -387 -80 -839 -509 -839 -51 0 -119 7 -151 15 -140 37 -285 146 -353
265 -58 102 -76 173 -76 295 0 122 18 193 76 295 67 117 212 228 348 264 90
24 234 20 326 -9z"/>
</g>
</svg>
