<?xml version="1.0" standalone="no"?>
<!DOCTYPE svg PUBLIC "-//W3C//DTD SVG 20010904//EN"
 "http://www.w3.org/TR/2001/REC-SVG-20010904/DTD/svg10.dtd">
<svg version="1.0" xmlns="http://www.w3.org/2000/svg"
 width="4167.000000pt" height="4167.000000pt" viewBox="0 0 4167.000000 4167.000000"
 preserveAspectRatio="xMidYMid meet">
<metadata>
Created by potrace 1.14, written by Peter Selinger 2001-2017
</metadata>
<g transform="translate(0.000000,4167.000000) scale(0.100000,-0.100000)"
fill="#000000" stroke="none">
<path d="M2086 23256 c1 -6666 5 -12139 7 -12161 5 -38 11 -90 22 -200 3 -27
7 -67 10 -87 3 -21 7 -57 10 -80 3 -24 8 -54 10 -68 3 -14 7 -41 10 -60 3 -19
15 -80 26 -135 11 -55 23 -111 25 -125 39 -208 173 -621 291 -899 47 -111 184
-394 229 -471 138 -240 218 -365 353 -550 365 -499 841 -952 1346 -1279 61
-39 115 -74 121 -79 5 -4 19 -12 30 -18 10 -6 62 -36 115 -66 273 -158 585
-299 894 -405 90 -30 317 -99 355 -108 8 -2 62 -14 120 -28 133 -32 155 -36
320 -66 58 -11 132 -23 165 -26 33 -4 68 -9 79 -11 10 -2 51 -6 90 -10 39 -3
87 -8 106 -10 143 -15 915 -18 5510 -18 l5185 -1 3 12068 2 12067 293 293
c295 296 364 361 588 553 343 294 802 632 1112 820 27 16 63 38 81 49 617 380
1382 707 2079 890 76 20 146 38 155 40 9 1 35 8 57 13 22 6 51 13 65 16 14 2
79 16 146 30 66 14 138 28 160 31 21 4 46 8 54 10 14 4 299 47 395 59 22 3 67
8 100 11 33 3 83 7 110 10 153 17 440 31 506 26 14 -1 10 -25 -33 -168 -51
-176 -131 -446 -153 -523 -12 -42 -78 -267 -182 -620 -25 -85 -62 -213 -83
-285 -60 -209 -129 -442 -162 -550 -16 -55 -33 -113 -38 -130 -4 -16 -23 -84
-43 -150 -39 -133 -139 -475 -193 -660 -19 -66 -49 -164 -65 -219 -17 -54 -32
-106 -34 -115 -2 -9 -18 -63 -35 -121 -18 -58 -40 -135 -50 -171 -9 -37 -21
-72 -24 -78 -4 -6 0 -11 11 -12 10 0 97 -2 193 -4 193 -3 507 -14 585 -20 28
-2 97 -7 155 -10 58 -4 121 -8 140 -10 19 -2 69 -6 110 -9 41 -4 95 -9 120
-11 102 -11 327 -36 355 -40 17 -2 53 -7 80 -10 28 -4 57 -8 65 -10 8 -2 42
-7 75 -11 33 -3 62 -8 65 -9 3 -2 29 -6 59 -10 30 -4 63 -9 75 -11 12 -2 59
-11 106 -19 136 -23 238 -42 345 -64 55 -12 113 -24 129 -27 16 -3 32 -7 36
-9 4 -2 49 -14 101 -25 475 -106 998 -275 1489 -482 224 -94 651 -306 803
-399 26 -16 49 -29 51 -29 6 0 223 -135 326 -203 355 -233 658 -478 959 -772
747 -731 1261 -1595 1561 -2624 12 -41 23 -81 25 -90 2 -9 13 -50 24 -91 18
-65 75 -319 87 -390 2 -14 11 -61 19 -105 27 -151 49 -302 60 -415 3 -30 8
-66 10 -80 2 -14 6 -63 10 -110 4 -47 8 -101 10 -120 17 -179 23 -643 11 -910
-7 -169 -8 -184 -21 -352 -4 -54 -5 -98 -2 -98 3 0 32 -7 64 -16 32 -8 65 -17
73 -19 8 -2 78 -20 155 -40 77 -20 149 -38 160 -40 22 -5 153 -39 230 -61 28
-7 61 -16 75 -18 14 -3 70 -17 125 -32 55 -14 107 -27 115 -29 8 -2 51 -13 95
-25 44 -12 87 -23 95 -25 8 -2 53 -13 100 -25 47 -12 112 -28 145 -36 33 -8
71 -19 85 -24 14 -5 36 -11 50 -14 30 -5 303 -73 345 -86 26 -8 212 -56 254
-65 9 -2 70 -18 136 -35 66 -18 128 -34 138 -36 42 -10 56 -13 127 -32 41 -12
210 -55 375 -97 165 -42 343 -88 395 -101 52 -14 102 -27 110 -29 8 -2 35 -9
60 -15 25 -6 61 -15 80 -20 19 -5 168 -43 330 -85 252 -65 347 -90 430 -110 8
-2 30 -8 48 -14 17 -5 32 -8 32 -6 0 3 11 0 24 -5 13 -4 158 -43 322 -85 165
-42 333 -85 374 -97 41 -11 82 -21 90 -23 52 -12 518 -131 551 -141 15 -4 16
-25 14 -187 -4 -182 -13 -417 -20 -512 -2 -27 -6 -88 -10 -135 -3 -47 -8 -103
-10 -125 -2 -22 -6 -66 -9 -97 -8 -80 -17 -167 -22 -203 -2 -16 -8 -68 -14
-115 -11 -86 -18 -136 -25 -179 -2 -13 -7 -45 -11 -70 -4 -25 -8 -55 -10 -66
-5 -25 -22 -120 -29 -160 -6 -34 -10 -59 -25 -131 -6 -28 -13 -64 -16 -80 -44
-258 -237 -931 -333 -1169 -5 -11 -32 -81 -61 -155 -29 -74 -66 -163 -82 -198
-15 -34 -28 -64 -28 -67 0 -18 -236 -495 -280 -565 -5 -8 -41 -71 -81 -140
-88 -153 -227 -368 -333 -515 -78 -109 -117 -161 -214 -284 -28 -35 -128 -157
-147 -177 -5 -7 -36 -42 -69 -78 -161 -183 -394 -415 -560 -561 -38 -33 -74
-65 -80 -70 -6 -6 -36 -30 -66 -55 -30 -25 -57 -47 -60 -50 -37 -42 -408 -313
-599 -438 -128 -84 -436 -272 -446 -272 -2 0 -36 -19 -77 -42 -195 -111 -591
-298 -857 -405 -240 -97 -660 -247 -751 -269 -15 -3 -209 -61 -305 -90 -58
-17 -541 -137 -630 -155 -33 -7 -64 -13 -70 -15 -65 -13 -328 -64 -355 -68
-19 -3 -58 -10 -87 -15 -29 -6 -74 -13 -100 -17 -26 -3 -57 -8 -68 -11 -11 -2
-33 -6 -50 -8 -16 -2 -46 -7 -65 -10 -19 -3 -53 -8 -75 -11 -22 -3 -51 -7 -65
-9 -14 -2 -65 -9 -115 -15 -49 -6 -103 -13 -120 -15 -73 -10 -268 -31 -360
-39 -33 -3 -89 -8 -125 -12 -36 -3 -85 -7 -110 -9 -48 -3 -204 -14 -285 -20
-50 -4 -243 -14 -410 -21 -49 -2 -268 -6 -485 -9 -374 -4 -664 -12 -775 -20
-27 -1 -90 -6 -140 -9 -49 -4 -108 -9 -130 -11 -22 -2 -67 -7 -100 -10 -33 -3
-76 -7 -95 -10 -19 -2 -57 -7 -85 -10 -56 -6 -238 -33 -271 -39 -12 -3 -39 -7
-60 -10 -42 -7 -236 -44 -269 -52 -11 -3 -31 -7 -45 -10 -14 -2 -36 -7 -50
-10 -14 -3 -32 -7 -40 -9 -258 -53 -747 -217 -1022 -341 -89 -41 -362 -179
-415 -210 -17 -11 -57 -34 -90 -53 -206 -120 -477 -319 -667 -491 -173 -156
-347 -341 -508 -541 -102 -126 -300 -421 -378 -564 -18 -33 -36 -64 -40 -70
-16 -20 -158 -313 -205 -419 -117 -271 -258 -688 -310 -916 -2 -8 -12 -53 -24
-100 -25 -106 -38 -165 -46 -210 -3 -19 -12 -64 -20 -100 -8 -36 -26 -137 -40
-225 -14 -88 -27 -173 -30 -190 -2 -16 -7 -55 -10 -85 -3 -30 -7 -64 -9 -76
-2 -12 -7 -57 -11 -100 -4 -43 -9 -87 -10 -96 -2 -9 -7 -61 -10 -115 -4 -54
-9 -106 -10 -115 -2 -10 -7 -77 -10 -150 -3 -73 -8 -169 -10 -213 -4 -83 -8
-324 -6 -385 l1 -35 3643 1 c2003 1 3703 4 3777 8 74 3 169 8 210 11 41 2 116
7 165 10 50 3 106 8 125 10 19 2 69 7 110 10 41 3 86 8 100 10 14 2 57 6 95
10 39 3 99 10 135 15 36 5 92 12 125 15 33 4 67 8 76 11 9 3 34 7 55 9 70 9
117 16 234 36 160 27 160 27 305 55 72 14 141 28 155 30 23 5 87 19 133 30 16
4 30 7 87 19 38 8 61 13 110 26 25 6 52 12 61 14 33 7 296 77 379 102 47 13
92 26 100 28 48 11 481 149 515 164 11 5 81 30 155 56 74 26 149 53 165 60 17
7 80 32 140 56 170 66 429 176 543 230 56 27 105 49 107 49 12 0 490 243 640
325 330 181 744 438 1049 652 129 91 463 338 522 386 11 9 84 69 164 134 188
154 189 154 214 178 12 11 50 45 86 75 36 30 74 64 86 75 11 11 63 58 115 105
121 109 567 554 689 689 52 57 100 109 105 115 69 74 275 319 419 497 206 254
532 712 711 1000 33 52 65 104 72 115 279 444 556 978 772 1484 84 195 102
239 106 250 1 3 7 19 14 35 7 17 37 95 67 175 30 80 63 168 74 195 48 126 230
698 255 805 2 8 31 122 64 253 53 209 149 648 165 762 4 23 9 52 11 65 3 14 8
41 11 60 3 19 9 60 14 90 5 30 12 71 15 90 3 19 7 46 10 60 2 14 7 49 10 79 4
30 8 61 10 70 1 9 6 45 10 81 4 36 9 73 10 82 2 10 6 48 10 86 3 38 7 78 9 88
2 11 7 57 10 104 4 47 9 101 11 120 4 32 13 153 20 275 16 259 19 853 19 3815
-1 3021 -3 3575 -19 3815 -3 33 -7 98 -10 145 -3 47 -7 105 -10 130 -2 25 -7
77 -10 115 -3 39 -8 88 -11 110 -2 22 -7 63 -9 90 -6 50 -11 89 -20 165 -3 22
-7 59 -10 83 -3 23 -8 53 -10 67 -2 14 -7 45 -10 70 -5 39 -51 324 -60 369 -7
38 -37 198 -41 221 -16 86 -82 375 -125 545 -203 808 -490 1579 -869 2330 -75
149 -148 291 -163 318 -15 26 -39 68 -53 95 -59 106 -189 330 -216 369 -15 23
-28 44 -28 47 0 14 -319 497 -433 656 -126 175 -164 225 -346 459 -46 60 -156
196 -168 209 -7 7 -29 34 -50 60 -21 26 -52 63 -69 82 -17 19 -71 80 -119 135
-207 236 -510 547 -760 780 -71 66 -136 127 -144 135 -121 115 -631 535 -771
635 -30 22 -57 42 -60 46 -3 3 -50 38 -105 77 -55 40 -106 77 -113 83 -20 16
-440 299 -445 299 -2 0 -44 26 -93 58 -49 32 -96 62 -104 65 -8 4 -28 16 -45
27 -16 11 -46 29 -65 40 -19 11 -42 25 -50 30 -106 69 -381 218 -690 373 -417
210 -751 354 -1195 517 -177 65 -512 177 -554 186 -14 3 -27 7 -31 9 -13 8
-446 130 -495 139 -5 1 -19 5 -30 9 -11 3 -31 8 -45 11 -21 4 -256 58 -310 71
-16 4 -346 70 -395 80 -16 3 -86 14 -155 26 -69 11 -136 22 -150 25 -14 2 -95
13 -180 25 -85 11 -166 22 -180 24 -14 2 -54 6 -90 10 -36 4 -76 8 -90 10 -14
2 -56 6 -95 10 -38 3 -97 8 -130 11 -76 8 -121 11 -270 19 -66 3 -149 9 -185
12 -36 3 -3839 7 -8451 8 l-8386 3 -1 -11682 c0 -6424 -1 -11694 -1 -11711
l-1 -30 -2051 1 c-1127 1 -2053 5 -2057 9 -4 4 -7 5272 -7 11708 l0 11702
-2831 1 -2831 2 3 -12122z"/>
<path d="M26077 25074 c-1 -1 -27 -5 -57 -8 -264 -30 -527 -153 -725 -338
-219 -204 -360 -474 -402 -768 -12 -86 -9 -328 6 -400 7 -36 15 -73 17 -84 23
-117 94 -283 179 -411 136 -209 317 -364 547 -469 80 -37 210 -80 273 -91 22
-3 63 -10 90 -15 54 -10 344 -6 385 4 14 4 47 11 75 16 253 51 550 234 720
445 88 110 189 287 211 370 1 6 10 30 18 54 23 63 45 160 53 239 16 142 2 365
-31 487 -41 151 -132 345 -207 439 -115 145 -195 221 -329 311 -213 143 -446
215 -708 219 -62 1 -114 1 -115 0z"/>
</g>
</svg>
