<svg aria-roledescription="er" viewBox="0 0 470.6248779296875 716" style="max-width: 470.625px; background-color: white;" xmlns:xlink="http://www.w3.org/1999/xlink" xmlns="http://www.w3.org/2000/svg" width="100%" id="mermaid-0"><style>#mermaid-0{font-family:"trebuchet ms",verdana,arial,sans-serif;font-size:16px;fill:#000000;}#mermaid-0 .error-icon{fill:#552222;}#mermaid-0 .error-text{fill:#552222;stroke:#552222;}#mermaid-0 .edge-thickness-normal{stroke-width:2px;}#mermaid-0 .edge-thickness-thick{stroke-width:3.5px;}#mermaid-0 .edge-pattern-solid{stroke-dasharray:0;}#mermaid-0 .edge-pattern-dashed{stroke-dasharray:3;}#mermaid-0 .edge-pattern-dotted{stroke-dasharray:2;}#mermaid-0 .marker{fill:#000000;stroke:#000000;}#mermaid-0 .marker.cross{stroke:#000000;}#mermaid-0 svg{font-family:"trebuchet ms",verdana,arial,sans-serif;font-size:16px;}#mermaid-0 .entityBox{fill:#cde498;stroke:#13540c;}#mermaid-0 .attributeBoxOdd{fill:#ffffff;stroke:#13540c;}#mermaid-0 .attributeBoxEven{fill:#f2f2f2;stroke:#13540c;}#mermaid-0 .relationshipLabelBox{fill:hsl(78.1578947368, 58.4615384615%, 84.5098039216%);opacity:0.7;background-color:hsl(78.1578947368, 58.4615384615%, 84.5098039216%);}#mermaid-0 .relationshipLabelBox rect{opacity:0.5;}#mermaid-0 .relationshipLine{stroke:#000000;}#mermaid-0 .entityTitleText{text-anchor:middle;font-size:18px;fill:#000000;}#mermaid-0 :root{--mermaid-font-family:"trebuchet ms",verdana,arial,sans-serif;}</style><g/><defs><marker orient="auto" markerHeight="18" markerWidth="18" refY="9" refX="0" id="ONLY_ONE_START"><path d="M9,0 L9,18 M15,0 L15,18" fill="none" stroke="gray"/></marker></defs><defs><marker orient="auto" markerHeight="18" markerWidth="18" refY="9" refX="18" id="ONLY_ONE_END"><path d="M3,0 L3,18 M9,0 L9,18" fill="none" stroke="gray"/></marker></defs><defs><marker orient="auto" markerHeight="18" markerWidth="30" refY="9" refX="0" id="ZERO_OR_ONE_START"><circle r="6" cy="9" cx="21" fill="white" stroke="gray"/><path d="M9,0 L9,18" fill="none" stroke="gray"/></marker></defs><defs><marker orient="auto" markerHeight="18" markerWidth="30" refY="9" refX="30" id="ZERO_OR_ONE_END"><circle r="6" cy="9" cx="9" fill="white" stroke="gray"/><path d="M21,0 L21,18" fill="none" stroke="gray"/></marker></defs><defs><marker orient="auto" markerHeight="36" markerWidth="45" refY="18" refX="18" id="ONE_OR_MORE_START"><path d="M0,18 Q 18,0 36,18 Q 18,36 0,18 M42,9 L42,27" fill="none" stroke="gray"/></marker></defs><defs><marker orient="auto" markerHeight="36" markerWidth="45" refY="18" refX="27" id="ONE_OR_MORE_END"><path d="M3,9 L3,27 M9,18 Q27,0 45,18 Q27,36 9,18" fill="none" stroke="gray"/></marker></defs><defs><marker orient="auto" markerHeight="36" markerWidth="57" refY="18" refX="18" id="ZERO_OR_MORE_START"><circle r="6" cy="18" cx="48" fill="white" stroke="gray"/><path d="M0,18 Q18,0 36,18 Q18,36 0,18" fill="none" stroke="gray"/></marker></defs><defs><marker orient="auto" markerHeight="36" markerWidth="57" refY="18" refX="39" id="ZERO_OR_MORE_END"><circle r="6" cy="18" cx="9" fill="white" stroke="gray"/><path d="M21,18 Q39,0 57,18 Q39,36 21,18" fill="none" stroke="gray"/></marker></defs><path style="stroke: gray; fill: none;" marker-start="url(#ZERO_OR_MORE_START)" marker-end="url(#ONLY_ONE_END)" d="M354.36914825439453,198L354.36914825439453,217.33333333333334C354.36914825439453,236.66666666666666,354.36914825439453,275.3333333333333,354.36914825439453,303C354.36914825439453,330.6666666666667,354.36914825439453,347.3333333333333,354.36914825439453,355.6666666666667L354.36914825439453,364" class="er relationshipLine"/><g transform="translate(258.1134490966797,364 )" id="entity-users-bb4813d9-c141-48f0-a717-0d03af7b4629"><rect height="332" width="192.5113983154297" y="0" x="0" class="er entityBox"/><text style="dominant-baseline: middle; text-anchor: middle; font-size: 12px;" transform="translate(96.25569915771484,12)" y="0" x="0" id="text-entity-users-bb4813d9-c141-48f0-a717-0d03af7b4629" class="er entityLabel">users</text><rect height="22" width="54.095550537109375" y="24" x="0" class="er attributeBoxOdd"/><text style="dominant-baseline: middle; font-size: 10.2px;" transform="translate(5,35)" y="0" x="0" id="text-entity-users-bb4813d9-c141-48f0-a717-0d03af7b4629-attr-1-type" class="er entityLabel">String</text><rect height="22" width="68.515625" y="24" x="54.095550537109375" class="er attributeBoxOdd"/><text style="dominant-baseline: middle; font-size: 10.2px;" transform="translate(59.095550537109375,35)" y="0" x="0" id="text-entity-users-bb4813d9-c141-48f0-a717-0d03af7b4629-attr-1-name" class="er entityLabel">id</text><rect height="22" width="22.68768310546875" y="24" x="122.61117553710938" class="er attributeBoxOdd"/><text style="dominant-baseline: middle; font-size: 10.2px;" transform="translate(127.61117553710938,35)" y="0" x="0" id="text-entity-users-bb4813d9-c141-48f0-a717-0d03af7b4629-attr-1-key" class="er entityLabel">PK</text><rect height="22" width="47.21253967285156" y="24" x="145.29885864257812" class="er attributeBoxOdd"/><text style="dominant-baseline: middle; font-size: 10.2px;" transform="translate(150.29885864257812,35)" y="0" x="0" id="text-entity-users-bb4813d9-c141-48f0-a717-0d03af7b4629-attr-1-comment" class="er entityLabel"/><rect height="22" width="54.095550537109375" y="46" x="0" class="er attributeBoxEven"/><text style="dominant-baseline: middle; font-size: 10.2px;" transform="translate(5,57)" y="0" x="0" id="text-entity-users-bb4813d9-c141-48f0-a717-0d03af7b4629-attr-2-type" class="er entityLabel">String</text><rect height="22" width="68.515625" y="46" x="54.095550537109375" class="er attributeBoxEven"/><text style="dominant-baseline: middle; font-size: 10.2px;" transform="translate(59.095550537109375,57)" y="0" x="0" id="text-entity-users-bb4813d9-c141-48f0-a717-0d03af7b4629-attr-2-name" class="er entityLabel">name</text><rect height="22" width="22.68768310546875" y="46" x="122.61117553710938" class="er attributeBoxEven"/><text style="dominant-baseline: middle; font-size: 10.2px;" transform="translate(127.61117553710938,57)" y="0" x="0" id="text-entity-users-bb4813d9-c141-48f0-a717-0d03af7b4629-attr-2-key" class="er entityLabel"/><rect height="22" width="47.21253967285156" y="46" x="145.29885864257812" class="er attributeBoxEven"/><text style="dominant-baseline: middle; font-size: 10.2px;" transform="translate(150.29885864257812,57)" y="0" x="0" id="text-entity-users-bb4813d9-c141-48f0-a717-0d03af7b4629-attr-2-comment" class="er entityLabel">nullable</text><rect height="22" width="54.095550537109375" y="68" x="0" class="er attributeBoxOdd"/><text style="dominant-baseline: middle; font-size: 10.2px;" transform="translate(5,79)" y="0" x="0" id="text-entity-users-bb4813d9-c141-48f0-a717-0d03af7b4629-attr-3-type" class="er entityLabel">String</text><rect height="22" width="68.515625" y="68" x="54.095550537109375" class="er attributeBoxOdd"/><text style="dominant-baseline: middle; font-size: 10.2px;" transform="translate(59.095550537109375,79)" y="0" x="0" id="text-entity-users-bb4813d9-c141-48f0-a717-0d03af7b4629-attr-3-name" class="er entityLabel">email</text><rect height="22" width="22.68768310546875" y="68" x="122.61117553710938" class="er attributeBoxOdd"/><text style="dominant-baseline: middle; font-size: 10.2px;" transform="translate(127.61117553710938,79)" y="0" x="0" id="text-entity-users-bb4813d9-c141-48f0-a717-0d03af7b4629-attr-3-key" class="er entityLabel"/><rect height="22" width="47.21253967285156" y="68" x="145.29885864257812" class="er attributeBoxOdd"/><text style="dominant-baseline: middle; font-size: 10.2px;" transform="translate(150.29885864257812,79)" y="0" x="0" id="text-entity-users-bb4813d9-c141-48f0-a717-0d03af7b4629-attr-3-comment" class="er entityLabel"/><rect height="22" width="54.095550537109375" y="90" x="0" class="er attributeBoxEven"/><text style="dominant-baseline: middle; font-size: 10.2px;" transform="translate(5,101)" y="0" x="0" id="text-entity-users-bb4813d9-c141-48f0-a717-0d03af7b4629-attr-4-type" class="er entityLabel">String</text><rect height="22" width="68.515625" y="90" x="54.095550537109375" class="er attributeBoxEven"/><text style="dominant-baseline: middle; font-size: 10.2px;" transform="translate(59.095550537109375,101)" y="0" x="0" id="text-entity-users-bb4813d9-c141-48f0-a717-0d03af7b4629-attr-4-name" class="er entityLabel">image</text><rect height="22" width="22.68768310546875" y="90" x="122.61117553710938" class="er attributeBoxEven"/><text style="dominant-baseline: middle; font-size: 10.2px;" transform="translate(127.61117553710938,101)" y="0" x="0" id="text-entity-users-bb4813d9-c141-48f0-a717-0d03af7b4629-attr-4-key" class="er entityLabel"/><rect height="22" width="47.21253967285156" y="90" x="145.29885864257812" class="er attributeBoxEven"/><text style="dominant-baseline: middle; font-size: 10.2px;" transform="translate(150.29885864257812,101)" y="0" x="0" id="text-entity-users-bb4813d9-c141-48f0-a717-0d03af7b4629-attr-4-comment" class="er entityLabel">nullable</text><rect height="22" width="54.095550537109375" y="112" x="0" class="er attributeBoxOdd"/><text style="dominant-baseline: middle; font-size: 10.2px;" transform="translate(5,123)" y="0" x="0" id="text-entity-users-bb4813d9-c141-48f0-a717-0d03af7b4629-attr-5-type" class="er entityLabel">String</text><rect height="22" width="68.515625" y="112" x="54.095550537109375" class="er attributeBoxOdd"/><text style="dominant-baseline: middle; font-size: 10.2px;" transform="translate(59.095550537109375,123)" y="0" x="0" id="text-entity-users-bb4813d9-c141-48f0-a717-0d03af7b4629-attr-5-name" class="er entityLabel">userType</text><rect height="22" width="22.68768310546875" y="112" x="122.61117553710938" class="er attributeBoxOdd"/><text style="dominant-baseline: middle; font-size: 10.2px;" transform="translate(127.61117553710938,123)" y="0" x="0" id="text-entity-users-bb4813d9-c141-48f0-a717-0d03af7b4629-attr-5-key" class="er entityLabel"/><rect height="22" width="47.21253967285156" y="112" x="145.29885864257812" class="er attributeBoxOdd"/><text style="dominant-baseline: middle; font-size: 10.2px;" transform="translate(150.29885864257812,123)" y="0" x="0" id="text-entity-users-bb4813d9-c141-48f0-a717-0d03af7b4629-attr-5-comment" class="er entityLabel"/><rect height="22" width="54.095550537109375" y="134" x="0" class="er attributeBoxEven"/><text style="dominant-baseline: middle; font-size: 10.2px;" transform="translate(5,145)" y="0" x="0" id="text-entity-users-bb4813d9-c141-48f0-a717-0d03af7b4629-attr-6-type" class="er entityLabel">String</text><rect height="22" width="68.515625" y="134" x="54.095550537109375" class="er attributeBoxEven"/><text style="dominant-baseline: middle; font-size: 10.2px;" transform="translate(59.095550537109375,145)" y="0" x="0" id="text-entity-users-bb4813d9-c141-48f0-a717-0d03af7b4629-attr-6-name" class="er entityLabel">password</text><rect height="22" width="22.68768310546875" y="134" x="122.61117553710938" class="er attributeBoxEven"/><text style="dominant-baseline: middle; font-size: 10.2px;" transform="translate(127.61117553710938,145)" y="0" x="0" id="text-entity-users-bb4813d9-c141-48f0-a717-0d03af7b4629-attr-6-key" class="er entityLabel"/><rect height="22" width="47.21253967285156" y="134" x="145.29885864257812" class="er attributeBoxEven"/><text style="dominant-baseline: middle; font-size: 10.2px;" transform="translate(150.29885864257812,145)" y="0" x="0" id="text-entity-users-bb4813d9-c141-48f0-a717-0d03af7b4629-attr-6-comment" class="er entityLabel"/><rect height="22" width="54.095550537109375" y="156" x="0" class="er attributeBoxOdd"/><text style="dominant-baseline: middle; font-size: 10.2px;" transform="translate(5,167)" y="0" x="0" id="text-entity-users-bb4813d9-c141-48f0-a717-0d03af7b4629-attr-7-type" class="er entityLabel">String</text><rect height="22" width="68.515625" y="156" x="54.095550537109375" class="er attributeBoxOdd"/><text style="dominant-baseline: middle; font-size: 10.2px;" transform="translate(59.095550537109375,167)" y="0" x="0" id="text-entity-users-bb4813d9-c141-48f0-a717-0d03af7b4629-attr-7-name" class="er entityLabel">twitterUrl</text><rect height="22" width="22.68768310546875" y="156" x="122.61117553710938" class="er attributeBoxOdd"/><text style="dominant-baseline: middle; font-size: 10.2px;" transform="translate(127.61117553710938,167)" y="0" x="0" id="text-entity-users-bb4813d9-c141-48f0-a717-0d03af7b4629-attr-7-key" class="er entityLabel"/><rect height="22" width="47.21253967285156" y="156" x="145.29885864257812" class="er attributeBoxOdd"/><text style="dominant-baseline: middle; font-size: 10.2px;" transform="translate(150.29885864257812,167)" y="0" x="0" id="text-entity-users-bb4813d9-c141-48f0-a717-0d03af7b4629-attr-7-comment" class="er entityLabel">nullable</text><rect height="22" width="54.095550537109375" y="178" x="0" class="er attributeBoxEven"/><text style="dominant-baseline: middle; font-size: 10.2px;" transform="translate(5,189)" y="0" x="0" id="text-entity-users-bb4813d9-c141-48f0-a717-0d03af7b4629-attr-8-type" class="er entityLabel">String</text><rect height="22" width="68.515625" y="178" x="54.095550537109375" class="er attributeBoxEven"/><text style="dominant-baseline: middle; font-size: 10.2px;" transform="translate(59.095550537109375,189)" y="0" x="0" id="text-entity-users-bb4813d9-c141-48f0-a717-0d03af7b4629-attr-8-name" class="er entityLabel">facebookUrl</text><rect height="22" width="22.68768310546875" y="178" x="122.61117553710938" class="er attributeBoxEven"/><text style="dominant-baseline: middle; font-size: 10.2px;" transform="translate(127.61117553710938,189)" y="0" x="0" id="text-entity-users-bb4813d9-c141-48f0-a717-0d03af7b4629-attr-8-key" class="er entityLabel"/><rect height="22" width="47.21253967285156" y="178" x="145.29885864257812" class="er attributeBoxEven"/><text style="dominant-baseline: middle; font-size: 10.2px;" transform="translate(150.29885864257812,189)" y="0" x="0" id="text-entity-users-bb4813d9-c141-48f0-a717-0d03af7b4629-attr-8-comment" class="er entityLabel">nullable</text><rect height="22" width="54.095550537109375" y="200" x="0" class="er attributeBoxOdd"/><text style="dominant-baseline: middle; font-size: 10.2px;" transform="translate(5,211)" y="0" x="0" id="text-entity-users-bb4813d9-c141-48f0-a717-0d03af7b4629-attr-9-type" class="er entityLabel">String</text><rect height="22" width="68.515625" y="200" x="54.095550537109375" class="er attributeBoxOdd"/><text style="dominant-baseline: middle; font-size: 10.2px;" transform="translate(59.095550537109375,211)" y="0" x="0" id="text-entity-users-bb4813d9-c141-48f0-a717-0d03af7b4629-attr-9-name" class="er entityLabel">linkedinUrl</text><rect height="22" width="22.68768310546875" y="200" x="122.61117553710938" class="er attributeBoxOdd"/><text style="dominant-baseline: middle; font-size: 10.2px;" transform="translate(127.61117553710938,211)" y="0" x="0" id="text-entity-users-bb4813d9-c141-48f0-a717-0d03af7b4629-attr-9-key" class="er entityLabel"/><rect height="22" width="47.21253967285156" y="200" x="145.29885864257812" class="er attributeBoxOdd"/><text style="dominant-baseline: middle; font-size: 10.2px;" transform="translate(150.29885864257812,211)" y="0" x="0" id="text-entity-users-bb4813d9-c141-48f0-a717-0d03af7b4629-attr-9-comment" class="er entityLabel">nullable</text><rect height="22" width="54.095550537109375" y="222" x="0" class="er attributeBoxEven"/><text style="dominant-baseline: middle; font-size: 10.2px;" transform="translate(5,233)" y="0" x="0" id="text-entity-users-bb4813d9-c141-48f0-a717-0d03af7b4629-attr-10-type" class="er entityLabel">String</text><rect height="22" width="68.515625" y="222" x="54.095550537109375" class="er attributeBoxEven"/><text style="dominant-baseline: middle; font-size: 10.2px;" transform="translate(59.095550537109375,233)" y="0" x="0" id="text-entity-users-bb4813d9-c141-48f0-a717-0d03af7b4629-attr-10-name" class="er entityLabel">instagramUrl</text><rect height="22" width="22.68768310546875" y="222" x="122.61117553710938" class="er attributeBoxEven"/><text style="dominant-baseline: middle; font-size: 10.2px;" transform="translate(127.61117553710938,233)" y="0" x="0" id="text-entity-users-bb4813d9-c141-48f0-a717-0d03af7b4629-attr-10-key" class="er entityLabel"/><rect height="22" width="47.21253967285156" y="222" x="145.29885864257812" class="er attributeBoxEven"/><text style="dominant-baseline: middle; font-size: 10.2px;" transform="translate(150.29885864257812,233)" y="0" x="0" id="text-entity-users-bb4813d9-c141-48f0-a717-0d03af7b4629-attr-10-comment" class="er entityLabel">nullable</text><rect height="22" width="54.095550537109375" y="244" x="0" class="er attributeBoxOdd"/><text style="dominant-baseline: middle; font-size: 10.2px;" transform="translate(5,255)" y="0" x="0" id="text-entity-users-bb4813d9-c141-48f0-a717-0d03af7b4629-attr-11-type" class="er entityLabel">String</text><rect height="22" width="68.515625" y="244" x="54.095550537109375" class="er attributeBoxOdd"/><text style="dominant-baseline: middle; font-size: 10.2px;" transform="translate(59.095550537109375,255)" y="0" x="0" id="text-entity-users-bb4813d9-c141-48f0-a717-0d03af7b4629-attr-11-name" class="er entityLabel">youtubeUrl</text><rect height="22" width="22.68768310546875" y="244" x="122.61117553710938" class="er attributeBoxOdd"/><text style="dominant-baseline: middle; font-size: 10.2px;" transform="translate(127.61117553710938,255)" y="0" x="0" id="text-entity-users-bb4813d9-c141-48f0-a717-0d03af7b4629-attr-11-key" class="er entityLabel"/><rect height="22" width="47.21253967285156" y="244" x="145.29885864257812" class="er attributeBoxOdd"/><text style="dominant-baseline: middle; font-size: 10.2px;" transform="translate(150.29885864257812,255)" y="0" x="0" id="text-entity-users-bb4813d9-c141-48f0-a717-0d03af7b4629-attr-11-comment" class="er entityLabel">nullable</text><rect height="22" width="54.095550537109375" y="266" x="0" class="er attributeBoxEven"/><text style="dominant-baseline: middle; font-size: 10.2px;" transform="translate(5,277)" y="0" x="0" id="text-entity-users-bb4813d9-c141-48f0-a717-0d03af7b4629-attr-12-type" class="er entityLabel">String</text><rect height="22" width="68.515625" y="266" x="54.095550537109375" class="er attributeBoxEven"/><text style="dominant-baseline: middle; font-size: 10.2px;" transform="translate(59.095550537109375,277)" y="0" x="0" id="text-entity-users-bb4813d9-c141-48f0-a717-0d03af7b4629-attr-12-name" class="er entityLabel">token</text><rect height="22" width="22.68768310546875" y="266" x="122.61117553710938" class="er attributeBoxEven"/><text style="dominant-baseline: middle; font-size: 10.2px;" transform="translate(127.61117553710938,277)" y="0" x="0" id="text-entity-users-bb4813d9-c141-48f0-a717-0d03af7b4629-attr-12-key" class="er entityLabel"/><rect height="22" width="47.21253967285156" y="266" x="145.29885864257812" class="er attributeBoxEven"/><text style="dominant-baseline: middle; font-size: 10.2px;" transform="translate(150.29885864257812,277)" y="0" x="0" id="text-entity-users-bb4813d9-c141-48f0-a717-0d03af7b4629-attr-12-comment" class="er entityLabel">nullable</text><rect height="22" width="54.095550537109375" y="288" x="0" class="er attributeBoxOdd"/><text style="dominant-baseline: middle; font-size: 10.2px;" transform="translate(5,299)" y="0" x="0" id="text-entity-users-bb4813d9-c141-48f0-a717-0d03af7b4629-attr-13-type" class="er entityLabel">DateTime</text><rect height="22" width="68.515625" y="288" x="54.095550537109375" class="er attributeBoxOdd"/><text style="dominant-baseline: middle; font-size: 10.2px;" transform="translate(59.095550537109375,299)" y="0" x="0" id="text-entity-users-bb4813d9-c141-48f0-a717-0d03af7b4629-attr-13-name" class="er entityLabel">createdAt</text><rect height="22" width="22.68768310546875" y="288" x="122.61117553710938" class="er attributeBoxOdd"/><text style="dominant-baseline: middle; font-size: 10.2px;" transform="translate(127.61117553710938,299)" y="0" x="0" id="text-entity-users-bb4813d9-c141-48f0-a717-0d03af7b4629-attr-13-key" class="er entityLabel"/><rect height="22" width="47.21253967285156" y="288" x="145.29885864257812" class="er attributeBoxOdd"/><text style="dominant-baseline: middle; font-size: 10.2px;" transform="translate(150.29885864257812,299)" y="0" x="0" id="text-entity-users-bb4813d9-c141-48f0-a717-0d03af7b4629-attr-13-comment" class="er entityLabel"/><rect height="22" width="54.095550537109375" y="310" x="0" class="er attributeBoxEven"/><text style="dominant-baseline: middle; font-size: 10.2px;" transform="translate(5,321)" y="0" x="0" id="text-entity-users-bb4813d9-c141-48f0-a717-0d03af7b4629-attr-14-type" class="er entityLabel">DateTime</text><rect height="22" width="68.515625" y="310" x="54.095550537109375" class="er attributeBoxEven"/><text style="dominant-baseline: middle; font-size: 10.2px;" transform="translate(59.095550537109375,321)" y="0" x="0" id="text-entity-users-bb4813d9-c141-48f0-a717-0d03af7b4629-attr-14-name" class="er entityLabel">updatedAt</text><rect height="22" width="22.68768310546875" y="310" x="122.61117553710938" class="er attributeBoxEven"/><text style="dominant-baseline: middle; font-size: 10.2px;" transform="translate(127.61117553710938,321)" y="0" x="0" id="text-entity-users-bb4813d9-c141-48f0-a717-0d03af7b4629-attr-14-key" class="er entityLabel"/><rect height="22" width="47.21253967285156" y="310" x="145.29885864257812" class="er attributeBoxEven"/><text style="dominant-baseline: middle; font-size: 10.2px;" transform="translate(150.29885864257812,321)" y="0" x="0" id="text-entity-users-bb4813d9-c141-48f0-a717-0d03af7b4629-attr-14-comment" class="er entityLabel"/></g><g transform="translate(20,20 )" id="entity-Spotlight-f6d7884e-32d3-4bf0-9178-61e74feaf181"><rect height="244" width="178.40509033203125" y="0" x="0" class="er entityBox"/><text style="dominant-baseline: middle; text-anchor: middle; font-size: 12px;" transform="translate(89.20254516601562,12)" y="0" x="0" id="text-entity-Spotlight-f6d7884e-32d3-4bf0-9178-61e74feaf181" class="er entityLabel">Spotlight</text><rect height="22" width="37.39605712890625" y="24" x="0" class="er attributeBoxOdd"/><text style="dominant-baseline: middle; font-size: 10.2px;" transform="translate(5,35)" y="0" x="0" id="text-entity-Spotlight-f6d7884e-32d3-4bf0-9178-61e74feaf181-attr-1-type" class="er entityLabel">String</text><rect height="22" width="71.10881042480469" y="24" x="37.39605712890625" class="er attributeBoxOdd"/><text style="dominant-baseline: middle; font-size: 10.2px;" transform="translate(42.39605712890625,35)" y="0" x="0" id="text-entity-Spotlight-f6d7884e-32d3-4bf0-9178-61e74feaf181-attr-1-name" class="er entityLabel">id</text><rect height="22" width="22.68768310546875" y="24" x="108.50486755371094" class="er attributeBoxOdd"/><text style="dominant-baseline: middle; font-size: 10.2px;" transform="translate(113.50486755371094,35)" y="0" x="0" id="text-entity-Spotlight-f6d7884e-32d3-4bf0-9178-61e74feaf181-attr-1-key" class="er entityLabel">PK</text><rect height="22" width="47.21253967285156" y="24" x="131.1925506591797" class="er attributeBoxOdd"/><text style="dominant-baseline: middle; font-size: 10.2px;" transform="translate(136.1925506591797,35)" y="0" x="0" id="text-entity-Spotlight-f6d7884e-32d3-4bf0-9178-61e74feaf181-attr-1-comment" class="er entityLabel"/><rect height="22" width="37.39605712890625" y="46" x="0" class="er attributeBoxEven"/><text style="dominant-baseline: middle; font-size: 10.2px;" transform="translate(5,57)" y="0" x="0" id="text-entity-Spotlight-f6d7884e-32d3-4bf0-9178-61e74feaf181-attr-2-type" class="er entityLabel">String</text><rect height="22" width="71.10881042480469" y="46" x="37.39605712890625" class="er attributeBoxEven"/><text style="dominant-baseline: middle; font-size: 10.2px;" transform="translate(42.39605712890625,57)" y="0" x="0" id="text-entity-Spotlight-f6d7884e-32d3-4bf0-9178-61e74feaf181-attr-2-name" class="er entityLabel">menteeName</text><rect height="22" width="22.68768310546875" y="46" x="108.50486755371094" class="er attributeBoxEven"/><text style="dominant-baseline: middle; font-size: 10.2px;" transform="translate(113.50486755371094,57)" y="0" x="0" id="text-entity-Spotlight-f6d7884e-32d3-4bf0-9178-61e74feaf181-attr-2-key" class="er entityLabel"/><rect height="22" width="47.21253967285156" y="46" x="131.1925506591797" class="er attributeBoxEven"/><text style="dominant-baseline: middle; font-size: 10.2px;" transform="translate(136.1925506591797,57)" y="0" x="0" id="text-entity-Spotlight-f6d7884e-32d3-4bf0-9178-61e74feaf181-attr-2-comment" class="er entityLabel"/><rect height="22" width="37.39605712890625" y="68" x="0" class="er attributeBoxOdd"/><text style="dominant-baseline: middle; font-size: 10.2px;" transform="translate(5,79)" y="0" x="0" id="text-entity-Spotlight-f6d7884e-32d3-4bf0-9178-61e74feaf181-attr-3-type" class="er entityLabel">String</text><rect height="22" width="71.10881042480469" y="68" x="37.39605712890625" class="er attributeBoxOdd"/><text style="dominant-baseline: middle; font-size: 10.2px;" transform="translate(42.39605712890625,79)" y="0" x="0" id="text-entity-Spotlight-f6d7884e-32d3-4bf0-9178-61e74feaf181-attr-3-name" class="er entityLabel">portfolioUrl</text><rect height="22" width="22.68768310546875" y="68" x="108.50486755371094" class="er attributeBoxOdd"/><text style="dominant-baseline: middle; font-size: 10.2px;" transform="translate(113.50486755371094,79)" y="0" x="0" id="text-entity-Spotlight-f6d7884e-32d3-4bf0-9178-61e74feaf181-attr-3-key" class="er entityLabel"/><rect height="22" width="47.21253967285156" y="68" x="131.1925506591797" class="er attributeBoxOdd"/><text style="dominant-baseline: middle; font-size: 10.2px;" transform="translate(136.1925506591797,79)" y="0" x="0" id="text-entity-Spotlight-f6d7884e-32d3-4bf0-9178-61e74feaf181-attr-3-comment" class="er entityLabel">nullable</text><rect height="22" width="37.39605712890625" y="90" x="0" class="er attributeBoxEven"/><text style="dominant-baseline: middle; font-size: 10.2px;" transform="translate(5,101)" y="0" x="0" id="text-entity-Spotlight-f6d7884e-32d3-4bf0-9178-61e74feaf181-attr-4-type" class="er entityLabel">String</text><rect height="22" width="71.10881042480469" y="90" x="37.39605712890625" class="er attributeBoxEven"/><text style="dominant-baseline: middle; font-size: 10.2px;" transform="translate(42.39605712890625,101)" y="0" x="0" id="text-entity-Spotlight-f6d7884e-32d3-4bf0-9178-61e74feaf181-attr-4-name" class="er entityLabel">twitterUrl</text><rect height="22" width="22.68768310546875" y="90" x="108.50486755371094" class="er attributeBoxEven"/><text style="dominant-baseline: middle; font-size: 10.2px;" transform="translate(113.50486755371094,101)" y="0" x="0" id="text-entity-Spotlight-f6d7884e-32d3-4bf0-9178-61e74feaf181-attr-4-key" class="er entityLabel"/><rect height="22" width="47.21253967285156" y="90" x="131.1925506591797" class="er attributeBoxEven"/><text style="dominant-baseline: middle; font-size: 10.2px;" transform="translate(136.1925506591797,101)" y="0" x="0" id="text-entity-Spotlight-f6d7884e-32d3-4bf0-9178-61e74feaf181-attr-4-comment" class="er entityLabel">nullable</text><rect height="22" width="37.39605712890625" y="112" x="0" class="er attributeBoxOdd"/><text style="dominant-baseline: middle; font-size: 10.2px;" transform="translate(5,123)" y="0" x="0" id="text-entity-Spotlight-f6d7884e-32d3-4bf0-9178-61e74feaf181-attr-5-type" class="er entityLabel">String</text><rect height="22" width="71.10881042480469" y="112" x="37.39605712890625" class="er attributeBoxOdd"/><text style="dominant-baseline: middle; font-size: 10.2px;" transform="translate(42.39605712890625,123)" y="0" x="0" id="text-entity-Spotlight-f6d7884e-32d3-4bf0-9178-61e74feaf181-attr-5-name" class="er entityLabel">facebookUrl</text><rect height="22" width="22.68768310546875" y="112" x="108.50486755371094" class="er attributeBoxOdd"/><text style="dominant-baseline: middle; font-size: 10.2px;" transform="translate(113.50486755371094,123)" y="0" x="0" id="text-entity-Spotlight-f6d7884e-32d3-4bf0-9178-61e74feaf181-attr-5-key" class="er entityLabel"/><rect height="22" width="47.21253967285156" y="112" x="131.1925506591797" class="er attributeBoxOdd"/><text style="dominant-baseline: middle; font-size: 10.2px;" transform="translate(136.1925506591797,123)" y="0" x="0" id="text-entity-Spotlight-f6d7884e-32d3-4bf0-9178-61e74feaf181-attr-5-comment" class="er entityLabel">nullable</text><rect height="22" width="37.39605712890625" y="134" x="0" class="er attributeBoxEven"/><text style="dominant-baseline: middle; font-size: 10.2px;" transform="translate(5,145)" y="0" x="0" id="text-entity-Spotlight-f6d7884e-32d3-4bf0-9178-61e74feaf181-attr-6-type" class="er entityLabel">String</text><rect height="22" width="71.10881042480469" y="134" x="37.39605712890625" class="er attributeBoxEven"/><text style="dominant-baseline: middle; font-size: 10.2px;" transform="translate(42.39605712890625,145)" y="0" x="0" id="text-entity-Spotlight-f6d7884e-32d3-4bf0-9178-61e74feaf181-attr-6-name" class="er entityLabel">linkedinUrl</text><rect height="22" width="22.68768310546875" y="134" x="108.50486755371094" class="er attributeBoxEven"/><text style="dominant-baseline: middle; font-size: 10.2px;" transform="translate(113.50486755371094,145)" y="0" x="0" id="text-entity-Spotlight-f6d7884e-32d3-4bf0-9178-61e74feaf181-attr-6-key" class="er entityLabel"/><rect height="22" width="47.21253967285156" y="134" x="131.1925506591797" class="er attributeBoxEven"/><text style="dominant-baseline: middle; font-size: 10.2px;" transform="translate(136.1925506591797,145)" y="0" x="0" id="text-entity-Spotlight-f6d7884e-32d3-4bf0-9178-61e74feaf181-attr-6-comment" class="er entityLabel">nullable</text><rect height="22" width="37.39605712890625" y="156" x="0" class="er attributeBoxOdd"/><text style="dominant-baseline: middle; font-size: 10.2px;" transform="translate(5,167)" y="0" x="0" id="text-entity-Spotlight-f6d7884e-32d3-4bf0-9178-61e74feaf181-attr-7-type" class="er entityLabel">String</text><rect height="22" width="71.10881042480469" y="156" x="37.39605712890625" class="er attributeBoxOdd"/><text style="dominant-baseline: middle; font-size: 10.2px;" transform="translate(42.39605712890625,167)" y="0" x="0" id="text-entity-Spotlight-f6d7884e-32d3-4bf0-9178-61e74feaf181-attr-7-name" class="er entityLabel">instagramUrl</text><rect height="22" width="22.68768310546875" y="156" x="108.50486755371094" class="er attributeBoxOdd"/><text style="dominant-baseline: middle; font-size: 10.2px;" transform="translate(113.50486755371094,167)" y="0" x="0" id="text-entity-Spotlight-f6d7884e-32d3-4bf0-9178-61e74feaf181-attr-7-key" class="er entityLabel"/><rect height="22" width="47.21253967285156" y="156" x="131.1925506591797" class="er attributeBoxOdd"/><text style="dominant-baseline: middle; font-size: 10.2px;" transform="translate(136.1925506591797,167)" y="0" x="0" id="text-entity-Spotlight-f6d7884e-32d3-4bf0-9178-61e74feaf181-attr-7-comment" class="er entityLabel">nullable</text><rect height="22" width="37.39605712890625" y="178" x="0" class="er attributeBoxEven"/><text style="dominant-baseline: middle; font-size: 10.2px;" transform="translate(5,189)" y="0" x="0" id="text-entity-Spotlight-f6d7884e-32d3-4bf0-9178-61e74feaf181-attr-8-type" class="er entityLabel">String</text><rect height="22" width="71.10881042480469" y="178" x="37.39605712890625" class="er attributeBoxEven"/><text style="dominant-baseline: middle; font-size: 10.2px;" transform="translate(42.39605712890625,189)" y="0" x="0" id="text-entity-Spotlight-f6d7884e-32d3-4bf0-9178-61e74feaf181-attr-8-name" class="er entityLabel">youtubeUrl</text><rect height="22" width="22.68768310546875" y="178" x="108.50486755371094" class="er attributeBoxEven"/><text style="dominant-baseline: middle; font-size: 10.2px;" transform="translate(113.50486755371094,189)" y="0" x="0" id="text-entity-Spotlight-f6d7884e-32d3-4bf0-9178-61e74feaf181-attr-8-key" class="er entityLabel"/><rect height="22" width="47.21253967285156" y="178" x="131.1925506591797" class="er attributeBoxEven"/><text style="dominant-baseline: middle; font-size: 10.2px;" transform="translate(136.1925506591797,189)" y="0" x="0" id="text-entity-Spotlight-f6d7884e-32d3-4bf0-9178-61e74feaf181-attr-8-comment" class="er entityLabel">nullable</text><rect height="22" width="37.39605712890625" y="200" x="0" class="er attributeBoxOdd"/><text style="dominant-baseline: middle; font-size: 10.2px;" transform="translate(5,211)" y="0" x="0" id="text-entity-Spotlight-f6d7884e-32d3-4bf0-9178-61e74feaf181-attr-9-type" class="er entityLabel">String</text><rect height="22" width="71.10881042480469" y="200" x="37.39605712890625" class="er attributeBoxOdd"/><text style="dominant-baseline: middle; font-size: 10.2px;" transform="translate(42.39605712890625,211)" y="0" x="0" id="text-entity-Spotlight-f6d7884e-32d3-4bf0-9178-61e74feaf181-attr-9-name" class="er entityLabel">imageUrl</text><rect height="22" width="22.68768310546875" y="200" x="108.50486755371094" class="er attributeBoxOdd"/><text style="dominant-baseline: middle; font-size: 10.2px;" transform="translate(113.50486755371094,211)" y="0" x="0" id="text-entity-Spotlight-f6d7884e-32d3-4bf0-9178-61e74feaf181-attr-9-key" class="er entityLabel"/><rect height="22" width="47.21253967285156" y="200" x="131.1925506591797" class="er attributeBoxOdd"/><text style="dominant-baseline: middle; font-size: 10.2px;" transform="translate(136.1925506591797,211)" y="0" x="0" id="text-entity-Spotlight-f6d7884e-32d3-4bf0-9178-61e74feaf181-attr-9-comment" class="er entityLabel"/><rect height="22" width="37.39605712890625" y="222" x="0" class="er attributeBoxEven"/><text style="dominant-baseline: middle; font-size: 10.2px;" transform="translate(5,233)" y="0" x="0" id="text-entity-Spotlight-f6d7884e-32d3-4bf0-9178-61e74feaf181-attr-10-type" class="er entityLabel">String</text><rect height="22" width="71.10881042480469" y="222" x="37.39605712890625" class="er attributeBoxEven"/><text style="dominant-baseline: middle; font-size: 10.2px;" transform="translate(42.39605712890625,233)" y="0" x="0" id="text-entity-Spotlight-f6d7884e-32d3-4bf0-9178-61e74feaf181-attr-10-name" class="er entityLabel">about</text><rect height="22" width="22.68768310546875" y="222" x="108.50486755371094" class="er attributeBoxEven"/><text style="dominant-baseline: middle; font-size: 10.2px;" transform="translate(113.50486755371094,233)" y="0" x="0" id="text-entity-Spotlight-f6d7884e-32d3-4bf0-9178-61e74feaf181-attr-10-key" class="er entityLabel"/><rect height="22" width="47.21253967285156" y="222" x="131.1925506591797" class="er attributeBoxEven"/><text style="dominant-baseline: middle; font-size: 10.2px;" transform="translate(136.1925506591797,233)" y="0" x="0" id="text-entity-Spotlight-f6d7884e-32d3-4bf0-9178-61e74feaf181-attr-10-comment" class="er entityLabel"/></g><g transform="translate(298.40509033203125,86 )" id="entity-Blog-5bf8655b-cfee-4012-9e17-4fec6cac42f7"><rect height="112" width="111.92811584472656" y="0" x="0" class="er entityBox"/><text style="dominant-baseline: middle; text-anchor: middle; font-size: 12px;" transform="translate(55.96405792236328,12)" y="0" x="0" id="text-entity-Blog-5bf8655b-cfee-4012-9e17-4fec6cac42f7" class="er entityLabel">Blog</text><rect height="22" width="54.095550537109375" y="24" x="0" class="er attributeBoxOdd"/><text style="dominant-baseline: middle; font-size: 10.2px;" transform="translate(5,35)" y="0" x="0" id="text-entity-Blog-5bf8655b-cfee-4012-9e17-4fec6cac42f7-attr-1-type" class="er entityLabel">String</text><rect height="22" width="35.14488220214844" y="24" x="54.095550537109375" class="er attributeBoxOdd"/><text style="dominant-baseline: middle; font-size: 10.2px;" transform="translate(59.095550537109375,35)" y="0" x="0" id="text-entity-Blog-5bf8655b-cfee-4012-9e17-4fec6cac42f7-attr-1-name" class="er entityLabel">id</text><rect height="22" width="22.68768310546875" y="24" x="89.24043273925781" class="er attributeBoxOdd"/><text style="dominant-baseline: middle; font-size: 10.2px;" transform="translate(94.24043273925781,35)" y="0" x="0" id="text-entity-Blog-5bf8655b-cfee-4012-9e17-4fec6cac42f7-attr-1-key" class="er entityLabel">PK</text><rect height="22" width="54.095550537109375" y="46" x="0" class="er attributeBoxEven"/><text style="dominant-baseline: middle; font-size: 10.2px;" transform="translate(5,57)" y="0" x="0" id="text-entity-Blog-5bf8655b-cfee-4012-9e17-4fec6cac42f7-attr-2-type" class="er entityLabel">String</text><rect height="22" width="35.14488220214844" y="46" x="54.095550537109375" class="er attributeBoxEven"/><text style="dominant-baseline: middle; font-size: 10.2px;" transform="translate(59.095550537109375,57)" y="0" x="0" id="text-entity-Blog-5bf8655b-cfee-4012-9e17-4fec6cac42f7-attr-2-name" class="er entityLabel">title</text><rect height="22" width="22.68768310546875" y="46" x="89.24043273925781" class="er attributeBoxEven"/><text style="dominant-baseline: middle; font-size: 10.2px;" transform="translate(94.24043273925781,57)" y="0" x="0" id="text-entity-Blog-5bf8655b-cfee-4012-9e17-4fec6cac42f7-attr-2-key" class="er entityLabel"/><rect height="22" width="54.095550537109375" y="68" x="0" class="er attributeBoxOdd"/><text style="dominant-baseline: middle; font-size: 10.2px;" transform="translate(5,79)" y="0" x="0" id="text-entity-Blog-5bf8655b-cfee-4012-9e17-4fec6cac42f7-attr-3-type" class="er entityLabel">Json</text><rect height="22" width="35.14488220214844" y="68" x="54.095550537109375" class="er attributeBoxOdd"/><text style="dominant-baseline: middle; font-size: 10.2px;" transform="translate(59.095550537109375,79)" y="0" x="0" id="text-entity-Blog-5bf8655b-cfee-4012-9e17-4fec6cac42f7-attr-3-name" class="er entityLabel">entry</text><rect height="22" width="22.68768310546875" y="68" x="89.24043273925781" class="er attributeBoxOdd"/><text style="dominant-baseline: middle; font-size: 10.2px;" transform="translate(94.24043273925781,79)" y="0" x="0" id="text-entity-Blog-5bf8655b-cfee-4012-9e17-4fec6cac42f7-attr-3-key" class="er entityLabel"/><rect height="22" width="54.095550537109375" y="90" x="0" class="er attributeBoxEven"/><text style="dominant-baseline: middle; font-size: 10.2px;" transform="translate(5,101)" y="0" x="0" id="text-entity-Blog-5bf8655b-cfee-4012-9e17-4fec6cac42f7-attr-4-type" class="er entityLabel">DateTime</text><rect height="22" width="35.14488220214844" y="90" x="54.095550537109375" class="er attributeBoxEven"/><text style="dominant-baseline: middle; font-size: 10.2px;" transform="translate(59.095550537109375,101)" y="0" x="0" id="text-entity-Blog-5bf8655b-cfee-4012-9e17-4fec6cac42f7-attr-4-name" class="er entityLabel">date</text><rect height="22" width="22.68768310546875" y="90" x="89.24043273925781" class="er attributeBoxEven"/><text style="dominant-baseline: middle; font-size: 10.2px;" transform="translate(94.24043273925781,101)" y="0" x="0" id="text-entity-Blog-5bf8655b-cfee-4012-9e17-4fec6cac42f7-attr-4-key" class="er entityLabel"/></g><rect height="14" width="36.615234375" y="274" x="336.0615234375" class="er relationshipLabelBox"/><text style="text-anchor: middle; dominant-baseline: middle; font-size: 12px;" y="281" x="354.369140625" id="rel1" class="er relationshipLabel">author</text></svg>