<svg aria-roledescription="er" viewBox="0 0 490.5234375 716" style="max-width: 490.523px; background-color: white;" xmlns:xlink="http://www.w3.org/1999/xlink" xmlns="http://www.w3.org/2000/svg" width="100%" id="mermaid-0"><style>#mermaid-0{font-family:"trebuchet ms",verdana,arial,sans-serif;font-size:16px;fill:#000000;}#mermaid-0 .error-icon{fill:#552222;}#mermaid-0 .error-text{fill:#552222;stroke:#552222;}#mermaid-0 .edge-thickness-normal{stroke-width:2px;}#mermaid-0 .edge-thickness-thick{stroke-width:3.5px;}#mermaid-0 .edge-pattern-solid{stroke-dasharray:0;}#mermaid-0 .edge-pattern-dashed{stroke-dasharray:3;}#mermaid-0 .edge-pattern-dotted{stroke-dasharray:2;}#mermaid-0 .marker{fill:#000000;stroke:#000000;}#mermaid-0 .marker.cross{stroke:#000000;}#mermaid-0 svg{font-family:"trebuchet ms",verdana,arial,sans-serif;font-size:16px;}#mermaid-0 .entityBox{fill:#cde498;stroke:#13540c;}#mermaid-0 .attributeBoxOdd{fill:#ffffff;stroke:#13540c;}#mermaid-0 .attributeBoxEven{fill:#f2f2f2;stroke:#13540c;}#mermaid-0 .relationshipLabelBox{fill:hsl(78.1578947368, 58.4615384615%, 84.5098039216%);opacity:0.7;background-color:hsl(78.1578947368, 58.4615384615%, 84.5098039216%);}#mermaid-0 .relationshipLabelBox rect{opacity:0.5;}#mermaid-0 .relationshipLine{stroke:#000000;}#mermaid-0 .entityTitleText{text-anchor:middle;font-size:18px;fill:#000000;}#mermaid-0 :root{--mermaid-font-family:"trebuchet ms",verdana,arial,sans-serif;}</style><g/><defs><marker orient="auto" markerHeight="18" markerWidth="18" refY="9" refX="0" id="ONLY_ONE_START"><path d="M9,0 L9,18 M15,0 L15,18" fill="none" stroke="gray"/></marker></defs><defs><marker orient="auto" markerHeight="18" markerWidth="18" refY="9" refX="18" id="ONLY_ONE_END"><path d="M3,0 L3,18 M9,0 L9,18" fill="none" stroke="gray"/></marker></defs><defs><marker orient="auto" markerHeight="18" markerWidth="30" refY="9" refX="0" id="ZERO_OR_ONE_START"><circle r="6" cy="9" cx="21" fill="white" stroke="gray"/><path d="M9,0 L9,18" fill="none" stroke="gray"/></marker></defs><defs><marker orient="auto" markerHeight="18" markerWidth="30" refY="9" refX="30" id="ZERO_OR_ONE_END"><circle r="6" cy="9" cx="9" fill="white" stroke="gray"/><path d="M21,0 L21,18" fill="none" stroke="gray"/></marker></defs><defs><marker orient="auto" markerHeight="36" markerWidth="45" refY="18" refX="18" id="ONE_OR_MORE_START"><path d="M0,18 Q 18,0 36,18 Q 18,36 0,18 M42,9 L42,27" fill="none" stroke="gray"/></marker></defs><defs><marker orient="auto" markerHeight="36" markerWidth="45" refY="18" refX="27" id="ONE_OR_MORE_END"><path d="M3,9 L3,27 M9,18 Q27,0 45,18 Q27,36 9,18" fill="none" stroke="gray"/></marker></defs><defs><marker orient="auto" markerHeight="36" markerWidth="57" refY="18" refX="18" id="ZERO_OR_MORE_START"><circle r="6" cy="18" cx="48" fill="white" stroke="gray"/><path d="M0,18 Q18,0 36,18 Q18,36 0,18" fill="none" stroke="gray"/></marker></defs><defs><marker orient="auto" markerHeight="36" markerWidth="57" refY="18" refX="39" id="ZERO_OR_MORE_END"><circle r="6" cy="18" cx="9" fill="white" stroke="gray"/><path d="M21,18 Q39,0 57,18 Q39,36 21,18" fill="none" stroke="gray"/></marker></defs><path style="stroke: gray; fill: none;" marker-start="url(#ZERO_OR_MORE_START)" marker-end="url(#ONLY_ONE_END)" d="M375.26171875,209L375.26171875,226.5C375.26171875,244,375.26171875,279,375.26171875,304.8333333333333C375.26171875,330.6666666666667,375.26171875,347.3333333333333,375.26171875,355.6666666666667L375.26171875,364" class="er relationshipLine"/><g transform="translate(280,364 )" id="entity-users-47e00331-3690-43d3-99bf-36c63305b0b0"><rect height="332" width="190.5234375" y="0" x="0" class="er entityBox"/><text style="dominant-baseline: middle; text-anchor: middle; font-size: 12px;" transform="translate(95.26171875,12)" y="0" x="0" id="text-entity-users-47e00331-3690-43d3-99bf-36c63305b0b0" class="er entityLabel">users</text><rect height="22" width="53.6640625" y="24" x="0" class="er attributeBoxOdd"/><text style="dominant-baseline: middle; font-size: 10.2px;" transform="translate(5,35)" y="0" x="0" id="text-entity-users-47e00331-3690-43d3-99bf-36c63305b0b0-attr-1-type" class="er entityLabel">String</text><rect height="22" width="68.515625" y="24" x="53.6640625" class="er attributeBoxOdd"/><text style="dominant-baseline: middle; font-size: 10.2px;" transform="translate(58.6640625,35)" y="0" x="0" id="text-entity-users-47e00331-3690-43d3-99bf-36c63305b0b0-attr-1-name" class="er entityLabel">id</text><rect height="22" width="21.5625" y="24" x="122.1796875" class="er attributeBoxOdd"/><text style="dominant-baseline: middle; font-size: 10.2px;" transform="translate(127.1796875,35)" y="0" x="0" id="text-entity-users-47e00331-3690-43d3-99bf-36c63305b0b0-attr-1-key" class="er entityLabel">PK</text><rect height="22" width="46.78125" y="24" x="143.7421875" class="er attributeBoxOdd"/><text style="dominant-baseline: middle; font-size: 10.2px;" transform="translate(148.7421875,35)" y="0" x="0" id="text-entity-users-47e00331-3690-43d3-99bf-36c63305b0b0-attr-1-comment" class="er entityLabel"/><rect height="22" width="53.6640625" y="46" x="0" class="er attributeBoxEven"/><text style="dominant-baseline: middle; font-size: 10.2px;" transform="translate(5,57)" y="0" x="0" id="text-entity-users-47e00331-3690-43d3-99bf-36c63305b0b0-attr-2-type" class="er entityLabel">String</text><rect height="22" width="68.515625" y="46" x="53.6640625" class="er attributeBoxEven"/><text style="dominant-baseline: middle; font-size: 10.2px;" transform="translate(58.6640625,57)" y="0" x="0" id="text-entity-users-47e00331-3690-43d3-99bf-36c63305b0b0-attr-2-name" class="er entityLabel">name</text><rect height="22" width="21.5625" y="46" x="122.1796875" class="er attributeBoxEven"/><text style="dominant-baseline: middle; font-size: 10.2px;" transform="translate(127.1796875,57)" y="0" x="0" id="text-entity-users-47e00331-3690-43d3-99bf-36c63305b0b0-attr-2-key" class="er entityLabel"/><rect height="22" width="46.78125" y="46" x="143.7421875" class="er attributeBoxEven"/><text style="dominant-baseline: middle; font-size: 10.2px;" transform="translate(148.7421875,57)" y="0" x="0" id="text-entity-users-47e00331-3690-43d3-99bf-36c63305b0b0-attr-2-comment" class="er entityLabel">nullable</text><rect height="22" width="53.6640625" y="68" x="0" class="er attributeBoxOdd"/><text style="dominant-baseline: middle; font-size: 10.2px;" transform="translate(5,79)" y="0" x="0" id="text-entity-users-47e00331-3690-43d3-99bf-36c63305b0b0-attr-3-type" class="er entityLabel">String</text><rect height="22" width="68.515625" y="68" x="53.6640625" class="er attributeBoxOdd"/><text style="dominant-baseline: middle; font-size: 10.2px;" transform="translate(58.6640625,79)" y="0" x="0" id="text-entity-users-47e00331-3690-43d3-99bf-36c63305b0b0-attr-3-name" class="er entityLabel">email</text><rect height="22" width="21.5625" y="68" x="122.1796875" class="er attributeBoxOdd"/><text style="dominant-baseline: middle; font-size: 10.2px;" transform="translate(127.1796875,79)" y="0" x="0" id="text-entity-users-47e00331-3690-43d3-99bf-36c63305b0b0-attr-3-key" class="er entityLabel"/><rect height="22" width="46.78125" y="68" x="143.7421875" class="er attributeBoxOdd"/><text style="dominant-baseline: middle; font-size: 10.2px;" transform="translate(148.7421875,79)" y="0" x="0" id="text-entity-users-47e00331-3690-43d3-99bf-36c63305b0b0-attr-3-comment" class="er entityLabel"/><rect height="22" width="53.6640625" y="90" x="0" class="er attributeBoxEven"/><text style="dominant-baseline: middle; font-size: 10.2px;" transform="translate(5,101)" y="0" x="0" id="text-entity-users-47e00331-3690-43d3-99bf-36c63305b0b0-attr-4-type" class="er entityLabel">String</text><rect height="22" width="68.515625" y="90" x="53.6640625" class="er attributeBoxEven"/><text style="dominant-baseline: middle; font-size: 10.2px;" transform="translate(58.6640625,101)" y="0" x="0" id="text-entity-users-47e00331-3690-43d3-99bf-36c63305b0b0-attr-4-name" class="er entityLabel">image</text><rect height="22" width="21.5625" y="90" x="122.1796875" class="er attributeBoxEven"/><text style="dominant-baseline: middle; font-size: 10.2px;" transform="translate(127.1796875,101)" y="0" x="0" id="text-entity-users-47e00331-3690-43d3-99bf-36c63305b0b0-attr-4-key" class="er entityLabel"/><rect height="22" width="46.78125" y="90" x="143.7421875" class="er attributeBoxEven"/><text style="dominant-baseline: middle; font-size: 10.2px;" transform="translate(148.7421875,101)" y="0" x="0" id="text-entity-users-47e00331-3690-43d3-99bf-36c63305b0b0-attr-4-comment" class="er entityLabel">nullable</text><rect height="22" width="53.6640625" y="112" x="0" class="er attributeBoxOdd"/><text style="dominant-baseline: middle; font-size: 10.2px;" transform="translate(5,123)" y="0" x="0" id="text-entity-users-47e00331-3690-43d3-99bf-36c63305b0b0-attr-5-type" class="er entityLabel">String</text><rect height="22" width="68.515625" y="112" x="53.6640625" class="er attributeBoxOdd"/><text style="dominant-baseline: middle; font-size: 10.2px;" transform="translate(58.6640625,123)" y="0" x="0" id="text-entity-users-47e00331-3690-43d3-99bf-36c63305b0b0-attr-5-name" class="er entityLabel">userType</text><rect height="22" width="21.5625" y="112" x="122.1796875" class="er attributeBoxOdd"/><text style="dominant-baseline: middle; font-size: 10.2px;" transform="translate(127.1796875,123)" y="0" x="0" id="text-entity-users-47e00331-3690-43d3-99bf-36c63305b0b0-attr-5-key" class="er entityLabel"/><rect height="22" width="46.78125" y="112" x="143.7421875" class="er attributeBoxOdd"/><text style="dominant-baseline: middle; font-size: 10.2px;" transform="translate(148.7421875,123)" y="0" x="0" id="text-entity-users-47e00331-3690-43d3-99bf-36c63305b0b0-attr-5-comment" class="er entityLabel"/><rect height="22" width="53.6640625" y="134" x="0" class="er attributeBoxEven"/><text style="dominant-baseline: middle; font-size: 10.2px;" transform="translate(5,145)" y="0" x="0" id="text-entity-users-47e00331-3690-43d3-99bf-36c63305b0b0-attr-6-type" class="er entityLabel">String</text><rect height="22" width="68.515625" y="134" x="53.6640625" class="er attributeBoxEven"/><text style="dominant-baseline: middle; font-size: 10.2px;" transform="translate(58.6640625,145)" y="0" x="0" id="text-entity-users-47e00331-3690-43d3-99bf-36c63305b0b0-attr-6-name" class="er entityLabel">password</text><rect height="22" width="21.5625" y="134" x="122.1796875" class="er attributeBoxEven"/><text style="dominant-baseline: middle; font-size: 10.2px;" transform="translate(127.1796875,145)" y="0" x="0" id="text-entity-users-47e00331-3690-43d3-99bf-36c63305b0b0-attr-6-key" class="er entityLabel"/><rect height="22" width="46.78125" y="134" x="143.7421875" class="er attributeBoxEven"/><text style="dominant-baseline: middle; font-size: 10.2px;" transform="translate(148.7421875,145)" y="0" x="0" id="text-entity-users-47e00331-3690-43d3-99bf-36c63305b0b0-attr-6-comment" class="er entityLabel"/><rect height="22" width="53.6640625" y="156" x="0" class="er attributeBoxOdd"/><text style="dominant-baseline: middle; font-size: 10.2px;" transform="translate(5,167)" y="0" x="0" id="text-entity-users-47e00331-3690-43d3-99bf-36c63305b0b0-attr-7-type" class="er entityLabel">String</text><rect height="22" width="68.515625" y="156" x="53.6640625" class="er attributeBoxOdd"/><text style="dominant-baseline: middle; font-size: 10.2px;" transform="translate(58.6640625,167)" y="0" x="0" id="text-entity-users-47e00331-3690-43d3-99bf-36c63305b0b0-attr-7-name" class="er entityLabel">twitterUrl</text><rect height="22" width="21.5625" y="156" x="122.1796875" class="er attributeBoxOdd"/><text style="dominant-baseline: middle; font-size: 10.2px;" transform="translate(127.1796875,167)" y="0" x="0" id="text-entity-users-47e00331-3690-43d3-99bf-36c63305b0b0-attr-7-key" class="er entityLabel"/><rect height="22" width="46.78125" y="156" x="143.7421875" class="er attributeBoxOdd"/><text style="dominant-baseline: middle; font-size: 10.2px;" transform="translate(148.7421875,167)" y="0" x="0" id="text-entity-users-47e00331-3690-43d3-99bf-36c63305b0b0-attr-7-comment" class="er entityLabel">nullable</text><rect height="22" width="53.6640625" y="178" x="0" class="er attributeBoxEven"/><text style="dominant-baseline: middle; font-size: 10.2px;" transform="translate(5,189)" y="0" x="0" id="text-entity-users-47e00331-3690-43d3-99bf-36c63305b0b0-attr-8-type" class="er entityLabel">String</text><rect height="22" width="68.515625" y="178" x="53.6640625" class="er attributeBoxEven"/><text style="dominant-baseline: middle; font-size: 10.2px;" transform="translate(58.6640625,189)" y="0" x="0" id="text-entity-users-47e00331-3690-43d3-99bf-36c63305b0b0-attr-8-name" class="er entityLabel">facebookUrl</text><rect height="22" width="21.5625" y="178" x="122.1796875" class="er attributeBoxEven"/><text style="dominant-baseline: middle; font-size: 10.2px;" transform="translate(127.1796875,189)" y="0" x="0" id="text-entity-users-47e00331-3690-43d3-99bf-36c63305b0b0-attr-8-key" class="er entityLabel"/><rect height="22" width="46.78125" y="178" x="143.7421875" class="er attributeBoxEven"/><text style="dominant-baseline: middle; font-size: 10.2px;" transform="translate(148.7421875,189)" y="0" x="0" id="text-entity-users-47e00331-3690-43d3-99bf-36c63305b0b0-attr-8-comment" class="er entityLabel">nullable</text><rect height="22" width="53.6640625" y="200" x="0" class="er attributeBoxOdd"/><text style="dominant-baseline: middle; font-size: 10.2px;" transform="translate(5,211)" y="0" x="0" id="text-entity-users-47e00331-3690-43d3-99bf-36c63305b0b0-attr-9-type" class="er entityLabel">String</text><rect height="22" width="68.515625" y="200" x="53.6640625" class="er attributeBoxOdd"/><text style="dominant-baseline: middle; font-size: 10.2px;" transform="translate(58.6640625,211)" y="0" x="0" id="text-entity-users-47e00331-3690-43d3-99bf-36c63305b0b0-attr-9-name" class="er entityLabel">linkedinUrl</text><rect height="22" width="21.5625" y="200" x="122.1796875" class="er attributeBoxOdd"/><text style="dominant-baseline: middle; font-size: 10.2px;" transform="translate(127.1796875,211)" y="0" x="0" id="text-entity-users-47e00331-3690-43d3-99bf-36c63305b0b0-attr-9-key" class="er entityLabel"/><rect height="22" width="46.78125" y="200" x="143.7421875" class="er attributeBoxOdd"/><text style="dominant-baseline: middle; font-size: 10.2px;" transform="translate(148.7421875,211)" y="0" x="0" id="text-entity-users-47e00331-3690-43d3-99bf-36c63305b0b0-attr-9-comment" class="er entityLabel">nullable</text><rect height="22" width="53.6640625" y="222" x="0" class="er attributeBoxEven"/><text style="dominant-baseline: middle; font-size: 10.2px;" transform="translate(5,233)" y="0" x="0" id="text-entity-users-47e00331-3690-43d3-99bf-36c63305b0b0-attr-10-type" class="er entityLabel">String</text><rect height="22" width="68.515625" y="222" x="53.6640625" class="er attributeBoxEven"/><text style="dominant-baseline: middle; font-size: 10.2px;" transform="translate(58.6640625,233)" y="0" x="0" id="text-entity-users-47e00331-3690-43d3-99bf-36c63305b0b0-attr-10-name" class="er entityLabel">instagramUrl</text><rect height="22" width="21.5625" y="222" x="122.1796875" class="er attributeBoxEven"/><text style="dominant-baseline: middle; font-size: 10.2px;" transform="translate(127.1796875,233)" y="0" x="0" id="text-entity-users-47e00331-3690-43d3-99bf-36c63305b0b0-attr-10-key" class="er entityLabel"/><rect height="22" width="46.78125" y="222" x="143.7421875" class="er attributeBoxEven"/><text style="dominant-baseline: middle; font-size: 10.2px;" transform="translate(148.7421875,233)" y="0" x="0" id="text-entity-users-47e00331-3690-43d3-99bf-36c63305b0b0-attr-10-comment" class="er entityLabel">nullable</text><rect height="22" width="53.6640625" y="244" x="0" class="er attributeBoxOdd"/><text style="dominant-baseline: middle; font-size: 10.2px;" transform="translate(5,255)" y="0" x="0" id="text-entity-users-47e00331-3690-43d3-99bf-36c63305b0b0-attr-11-type" class="er entityLabel">String</text><rect height="22" width="68.515625" y="244" x="53.6640625" class="er attributeBoxOdd"/><text style="dominant-baseline: middle; font-size: 10.2px;" transform="translate(58.6640625,255)" y="0" x="0" id="text-entity-users-47e00331-3690-43d3-99bf-36c63305b0b0-attr-11-name" class="er entityLabel">youtubeUrl</text><rect height="22" width="21.5625" y="244" x="122.1796875" class="er attributeBoxOdd"/><text style="dominant-baseline: middle; font-size: 10.2px;" transform="translate(127.1796875,255)" y="0" x="0" id="text-entity-users-47e00331-3690-43d3-99bf-36c63305b0b0-attr-11-key" class="er entityLabel"/><rect height="22" width="46.78125" y="244" x="143.7421875" class="er attributeBoxOdd"/><text style="dominant-baseline: middle; font-size: 10.2px;" transform="translate(148.7421875,255)" y="0" x="0" id="text-entity-users-47e00331-3690-43d3-99bf-36c63305b0b0-attr-11-comment" class="er entityLabel">nullable</text><rect height="22" width="53.6640625" y="266" x="0" class="er attributeBoxEven"/><text style="dominant-baseline: middle; font-size: 10.2px;" transform="translate(5,277)" y="0" x="0" id="text-entity-users-47e00331-3690-43d3-99bf-36c63305b0b0-attr-12-type" class="er entityLabel">String</text><rect height="22" width="68.515625" y="266" x="53.6640625" class="er attributeBoxEven"/><text style="dominant-baseline: middle; font-size: 10.2px;" transform="translate(58.6640625,277)" y="0" x="0" id="text-entity-users-47e00331-3690-43d3-99bf-36c63305b0b0-attr-12-name" class="er entityLabel">token</text><rect height="22" width="21.5625" y="266" x="122.1796875" class="er attributeBoxEven"/><text style="dominant-baseline: middle; font-size: 10.2px;" transform="translate(127.1796875,277)" y="0" x="0" id="text-entity-users-47e00331-3690-43d3-99bf-36c63305b0b0-attr-12-key" class="er entityLabel"/><rect height="22" width="46.78125" y="266" x="143.7421875" class="er attributeBoxEven"/><text style="dominant-baseline: middle; font-size: 10.2px;" transform="translate(148.7421875,277)" y="0" x="0" id="text-entity-users-47e00331-3690-43d3-99bf-36c63305b0b0-attr-12-comment" class="er entityLabel">nullable</text><rect height="22" width="53.6640625" y="288" x="0" class="er attributeBoxOdd"/><text style="dominant-baseline: middle; font-size: 10.2px;" transform="translate(5,299)" y="0" x="0" id="text-entity-users-47e00331-3690-43d3-99bf-36c63305b0b0-attr-13-type" class="er entityLabel">DateTime</text><rect height="22" width="68.515625" y="288" x="53.6640625" class="er attributeBoxOdd"/><text style="dominant-baseline: middle; font-size: 10.2px;" transform="translate(58.6640625,299)" y="0" x="0" id="text-entity-users-47e00331-3690-43d3-99bf-36c63305b0b0-attr-13-name" class="er entityLabel">createdAt</text><rect height="22" width="21.5625" y="288" x="122.1796875" class="er attributeBoxOdd"/><text style="dominant-baseline: middle; font-size: 10.2px;" transform="translate(127.1796875,299)" y="0" x="0" id="text-entity-users-47e00331-3690-43d3-99bf-36c63305b0b0-attr-13-key" class="er entityLabel"/><rect height="22" width="46.78125" y="288" x="143.7421875" class="er attributeBoxOdd"/><text style="dominant-baseline: middle; font-size: 10.2px;" transform="translate(148.7421875,299)" y="0" x="0" id="text-entity-users-47e00331-3690-43d3-99bf-36c63305b0b0-attr-13-comment" class="er entityLabel"/><rect height="22" width="53.6640625" y="310" x="0" class="er attributeBoxEven"/><text style="dominant-baseline: middle; font-size: 10.2px;" transform="translate(5,321)" y="0" x="0" id="text-entity-users-47e00331-3690-43d3-99bf-36c63305b0b0-attr-14-type" class="er entityLabel">DateTime</text><rect height="22" width="68.515625" y="310" x="53.6640625" class="er attributeBoxEven"/><text style="dominant-baseline: middle; font-size: 10.2px;" transform="translate(58.6640625,321)" y="0" x="0" id="text-entity-users-47e00331-3690-43d3-99bf-36c63305b0b0-attr-14-name" class="er entityLabel">updatedAt</text><rect height="22" width="21.5625" y="310" x="122.1796875" class="er attributeBoxEven"/><text style="dominant-baseline: middle; font-size: 10.2px;" transform="translate(127.1796875,321)" y="0" x="0" id="text-entity-users-47e00331-3690-43d3-99bf-36c63305b0b0-attr-14-key" class="er entityLabel"/><rect height="22" width="46.78125" y="310" x="143.7421875" class="er attributeBoxEven"/><text style="dominant-baseline: middle; font-size: 10.2px;" transform="translate(148.7421875,321)" y="0" x="0" id="text-entity-users-47e00331-3690-43d3-99bf-36c63305b0b0-attr-14-comment" class="er entityLabel"/></g><g transform="translate(20,20 )" id="entity-Spotlight-affa5c55-f6f9-4fd0-bb6b-4423fecd73c0"><rect height="244" width="175.546875" y="0" x="0" class="er entityBox"/><text style="dominant-baseline: middle; text-anchor: middle; font-size: 12px;" transform="translate(87.7734375,12)" y="0" x="0" id="text-entity-Spotlight-affa5c55-f6f9-4fd0-bb6b-4423fecd73c0" class="er entityLabel">Spotlight</text><rect height="22" width="36.5234375" y="24" x="0" class="er attributeBoxOdd"/><text style="dominant-baseline: middle; font-size: 10.2px;" transform="translate(5,35)" y="0" x="0" id="text-entity-Spotlight-affa5c55-f6f9-4fd0-bb6b-4423fecd73c0-attr-1-type" class="er entityLabel">String</text><rect height="22" width="70.6796875" y="24" x="36.5234375" class="er attributeBoxOdd"/><text style="dominant-baseline: middle; font-size: 10.2px;" transform="translate(41.5234375,35)" y="0" x="0" id="text-entity-Spotlight-affa5c55-f6f9-4fd0-bb6b-4423fecd73c0-attr-1-name" class="er entityLabel">id</text><rect height="22" width="21.5625" y="24" x="107.203125" class="er attributeBoxOdd"/><text style="dominant-baseline: middle; font-size: 10.2px;" transform="translate(112.203125,35)" y="0" x="0" id="text-entity-Spotlight-affa5c55-f6f9-4fd0-bb6b-4423fecd73c0-attr-1-key" class="er entityLabel">PK</text><rect height="22" width="46.78125" y="24" x="128.765625" class="er attributeBoxOdd"/><text style="dominant-baseline: middle; font-size: 10.2px;" transform="translate(133.765625,35)" y="0" x="0" id="text-entity-Spotlight-affa5c55-f6f9-4fd0-bb6b-4423fecd73c0-attr-1-comment" class="er entityLabel"/><rect height="22" width="36.5234375" y="46" x="0" class="er attributeBoxEven"/><text style="dominant-baseline: middle; font-size: 10.2px;" transform="translate(5,57)" y="0" x="0" id="text-entity-Spotlight-affa5c55-f6f9-4fd0-bb6b-4423fecd73c0-attr-2-type" class="er entityLabel">String</text><rect height="22" width="70.6796875" y="46" x="36.5234375" class="er attributeBoxEven"/><text style="dominant-baseline: middle; font-size: 10.2px;" transform="translate(41.5234375,57)" y="0" x="0" id="text-entity-Spotlight-affa5c55-f6f9-4fd0-bb6b-4423fecd73c0-attr-2-name" class="er entityLabel">menteeName</text><rect height="22" width="21.5625" y="46" x="107.203125" class="er attributeBoxEven"/><text style="dominant-baseline: middle; font-size: 10.2px;" transform="translate(112.203125,57)" y="0" x="0" id="text-entity-Spotlight-affa5c55-f6f9-4fd0-bb6b-4423fecd73c0-attr-2-key" class="er entityLabel"/><rect height="22" width="46.78125" y="46" x="128.765625" class="er attributeBoxEven"/><text style="dominant-baseline: middle; font-size: 10.2px;" transform="translate(133.765625,57)" y="0" x="0" id="text-entity-Spotlight-affa5c55-f6f9-4fd0-bb6b-4423fecd73c0-attr-2-comment" class="er entityLabel"/><rect height="22" width="36.5234375" y="68" x="0" class="er attributeBoxOdd"/><text style="dominant-baseline: middle; font-size: 10.2px;" transform="translate(5,79)" y="0" x="0" id="text-entity-Spotlight-affa5c55-f6f9-4fd0-bb6b-4423fecd73c0-attr-3-type" class="er entityLabel">String</text><rect height="22" width="70.6796875" y="68" x="36.5234375" class="er attributeBoxOdd"/><text style="dominant-baseline: middle; font-size: 10.2px;" transform="translate(41.5234375,79)" y="0" x="0" id="text-entity-Spotlight-affa5c55-f6f9-4fd0-bb6b-4423fecd73c0-attr-3-name" class="er entityLabel">portfolioUrl</text><rect height="22" width="21.5625" y="68" x="107.203125" class="er attributeBoxOdd"/><text style="dominant-baseline: middle; font-size: 10.2px;" transform="translate(112.203125,79)" y="0" x="0" id="text-entity-Spotlight-affa5c55-f6f9-4fd0-bb6b-4423fecd73c0-attr-3-key" class="er entityLabel"/><rect height="22" width="46.78125" y="68" x="128.765625" class="er attributeBoxOdd"/><text style="dominant-baseline: middle; font-size: 10.2px;" transform="translate(133.765625,79)" y="0" x="0" id="text-entity-Spotlight-affa5c55-f6f9-4fd0-bb6b-4423fecd73c0-attr-3-comment" class="er entityLabel">nullable</text><rect height="22" width="36.5234375" y="90" x="0" class="er attributeBoxEven"/><text style="dominant-baseline: middle; font-size: 10.2px;" transform="translate(5,101)" y="0" x="0" id="text-entity-Spotlight-affa5c55-f6f9-4fd0-bb6b-4423fecd73c0-attr-4-type" class="er entityLabel">String</text><rect height="22" width="70.6796875" y="90" x="36.5234375" class="er attributeBoxEven"/><text style="dominant-baseline: middle; font-size: 10.2px;" transform="translate(41.5234375,101)" y="0" x="0" id="text-entity-Spotlight-affa5c55-f6f9-4fd0-bb6b-4423fecd73c0-attr-4-name" class="er entityLabel">twitterUrl</text><rect height="22" width="21.5625" y="90" x="107.203125" class="er attributeBoxEven"/><text style="dominant-baseline: middle; font-size: 10.2px;" transform="translate(112.203125,101)" y="0" x="0" id="text-entity-Spotlight-affa5c55-f6f9-4fd0-bb6b-4423fecd73c0-attr-4-key" class="er entityLabel"/><rect height="22" width="46.78125" y="90" x="128.765625" class="er attributeBoxEven"/><text style="dominant-baseline: middle; font-size: 10.2px;" transform="translate(133.765625,101)" y="0" x="0" id="text-entity-Spotlight-affa5c55-f6f9-4fd0-bb6b-4423fecd73c0-attr-4-comment" class="er entityLabel">nullable</text><rect height="22" width="36.5234375" y="112" x="0" class="er attributeBoxOdd"/><text style="dominant-baseline: middle; font-size: 10.2px;" transform="translate(5,123)" y="0" x="0" id="text-entity-Spotlight-affa5c55-f6f9-4fd0-bb6b-4423fecd73c0-attr-5-type" class="er entityLabel">String</text><rect height="22" width="70.6796875" y="112" x="36.5234375" class="er attributeBoxOdd"/><text style="dominant-baseline: middle; font-size: 10.2px;" transform="translate(41.5234375,123)" y="0" x="0" id="text-entity-Spotlight-affa5c55-f6f9-4fd0-bb6b-4423fecd73c0-attr-5-name" class="er entityLabel">facebookUrl</text><rect height="22" width="21.5625" y="112" x="107.203125" class="er attributeBoxOdd"/><text style="dominant-baseline: middle; font-size: 10.2px;" transform="translate(112.203125,123)" y="0" x="0" id="text-entity-Spotlight-affa5c55-f6f9-4fd0-bb6b-4423fecd73c0-attr-5-key" class="er entityLabel"/><rect height="22" width="46.78125" y="112" x="128.765625" class="er attributeBoxOdd"/><text style="dominant-baseline: middle; font-size: 10.2px;" transform="translate(133.765625,123)" y="0" x="0" id="text-entity-Spotlight-affa5c55-f6f9-4fd0-bb6b-4423fecd73c0-attr-5-comment" class="er entityLabel">nullable</text><rect height="22" width="36.5234375" y="134" x="0" class="er attributeBoxEven"/><text style="dominant-baseline: middle; font-size: 10.2px;" transform="translate(5,145)" y="0" x="0" id="text-entity-Spotlight-affa5c55-f6f9-4fd0-bb6b-4423fecd73c0-attr-6-type" class="er entityLabel">String</text><rect height="22" width="70.6796875" y="134" x="36.5234375" class="er attributeBoxEven"/><text style="dominant-baseline: middle; font-size: 10.2px;" transform="translate(41.5234375,145)" y="0" x="0" id="text-entity-Spotlight-affa5c55-f6f9-4fd0-bb6b-4423fecd73c0-attr-6-name" class="er entityLabel">linkedinUrl</text><rect height="22" width="21.5625" y="134" x="107.203125" class="er attributeBoxEven"/><text style="dominant-baseline: middle; font-size: 10.2px;" transform="translate(112.203125,145)" y="0" x="0" id="text-entity-Spotlight-affa5c55-f6f9-4fd0-bb6b-4423fecd73c0-attr-6-key" class="er entityLabel"/><rect height="22" width="46.78125" y="134" x="128.765625" class="er attributeBoxEven"/><text style="dominant-baseline: middle; font-size: 10.2px;" transform="translate(133.765625,145)" y="0" x="0" id="text-entity-Spotlight-affa5c55-f6f9-4fd0-bb6b-4423fecd73c0-attr-6-comment" class="er entityLabel">nullable</text><rect height="22" width="36.5234375" y="156" x="0" class="er attributeBoxOdd"/><text style="dominant-baseline: middle; font-size: 10.2px;" transform="translate(5,167)" y="0" x="0" id="text-entity-Spotlight-affa5c55-f6f9-4fd0-bb6b-4423fecd73c0-attr-7-type" class="er entityLabel">String</text><rect height="22" width="70.6796875" y="156" x="36.5234375" class="er attributeBoxOdd"/><text style="dominant-baseline: middle; font-size: 10.2px;" transform="translate(41.5234375,167)" y="0" x="0" id="text-entity-Spotlight-affa5c55-f6f9-4fd0-bb6b-4423fecd73c0-attr-7-name" class="er entityLabel">instagramUrl</text><rect height="22" width="21.5625" y="156" x="107.203125" class="er attributeBoxOdd"/><text style="dominant-baseline: middle; font-size: 10.2px;" transform="translate(112.203125,167)" y="0" x="0" id="text-entity-Spotlight-affa5c55-f6f9-4fd0-bb6b-4423fecd73c0-attr-7-key" class="er entityLabel"/><rect height="22" width="46.78125" y="156" x="128.765625" class="er attributeBoxOdd"/><text style="dominant-baseline: middle; font-size: 10.2px;" transform="translate(133.765625,167)" y="0" x="0" id="text-entity-Spotlight-affa5c55-f6f9-4fd0-bb6b-4423fecd73c0-attr-7-comment" class="er entityLabel">nullable</text><rect height="22" width="36.5234375" y="178" x="0" class="er attributeBoxEven"/><text style="dominant-baseline: middle; font-size: 10.2px;" transform="translate(5,189)" y="0" x="0" id="text-entity-Spotlight-affa5c55-f6f9-4fd0-bb6b-4423fecd73c0-attr-8-type" class="er entityLabel">String</text><rect height="22" width="70.6796875" y="178" x="36.5234375" class="er attributeBoxEven"/><text style="dominant-baseline: middle; font-size: 10.2px;" transform="translate(41.5234375,189)" y="0" x="0" id="text-entity-Spotlight-affa5c55-f6f9-4fd0-bb6b-4423fecd73c0-attr-8-name" class="er entityLabel">youtubeUrl</text><rect height="22" width="21.5625" y="178" x="107.203125" class="er attributeBoxEven"/><text style="dominant-baseline: middle; font-size: 10.2px;" transform="translate(112.203125,189)" y="0" x="0" id="text-entity-Spotlight-affa5c55-f6f9-4fd0-bb6b-4423fecd73c0-attr-8-key" class="er entityLabel"/><rect height="22" width="46.78125" y="178" x="128.765625" class="er attributeBoxEven"/><text style="dominant-baseline: middle; font-size: 10.2px;" transform="translate(133.765625,189)" y="0" x="0" id="text-entity-Spotlight-affa5c55-f6f9-4fd0-bb6b-4423fecd73c0-attr-8-comment" class="er entityLabel">nullable</text><rect height="22" width="36.5234375" y="200" x="0" class="er attributeBoxOdd"/><text style="dominant-baseline: middle; font-size: 10.2px;" transform="translate(5,211)" y="0" x="0" id="text-entity-Spotlight-affa5c55-f6f9-4fd0-bb6b-4423fecd73c0-attr-9-type" class="er entityLabel">String</text><rect height="22" width="70.6796875" y="200" x="36.5234375" class="er attributeBoxOdd"/><text style="dominant-baseline: middle; font-size: 10.2px;" transform="translate(41.5234375,211)" y="0" x="0" id="text-entity-Spotlight-affa5c55-f6f9-4fd0-bb6b-4423fecd73c0-attr-9-name" class="er entityLabel">imageUrl</text><rect height="22" width="21.5625" y="200" x="107.203125" class="er attributeBoxOdd"/><text style="dominant-baseline: middle; font-size: 10.2px;" transform="translate(112.203125,211)" y="0" x="0" id="text-entity-Spotlight-affa5c55-f6f9-4fd0-bb6b-4423fecd73c0-attr-9-key" class="er entityLabel"/><rect height="22" width="46.78125" y="200" x="128.765625" class="er attributeBoxOdd"/><text style="dominant-baseline: middle; font-size: 10.2px;" transform="translate(133.765625,211)" y="0" x="0" id="text-entity-Spotlight-affa5c55-f6f9-4fd0-bb6b-4423fecd73c0-attr-9-comment" class="er entityLabel"/><rect height="22" width="36.5234375" y="222" x="0" class="er attributeBoxEven"/><text style="dominant-baseline: middle; font-size: 10.2px;" transform="translate(5,233)" y="0" x="0" id="text-entity-Spotlight-affa5c55-f6f9-4fd0-bb6b-4423fecd73c0-attr-10-type" class="er entityLabel">String</text><rect height="22" width="70.6796875" y="222" x="36.5234375" class="er attributeBoxEven"/><text style="dominant-baseline: middle; font-size: 10.2px;" transform="translate(41.5234375,233)" y="0" x="0" id="text-entity-Spotlight-affa5c55-f6f9-4fd0-bb6b-4423fecd73c0-attr-10-name" class="er entityLabel">about</text><rect height="22" width="21.5625" y="222" x="107.203125" class="er attributeBoxEven"/><text style="dominant-baseline: middle; font-size: 10.2px;" transform="translate(112.203125,233)" y="0" x="0" id="text-entity-Spotlight-affa5c55-f6f9-4fd0-bb6b-4423fecd73c0-attr-10-key" class="er entityLabel"/><rect height="22" width="46.78125" y="222" x="128.765625" class="er attributeBoxEven"/><text style="dominant-baseline: middle; font-size: 10.2px;" transform="translate(133.765625,233)" y="0" x="0" id="text-entity-Spotlight-affa5c55-f6f9-4fd0-bb6b-4423fecd73c0-attr-10-comment" class="er entityLabel"/></g><g transform="translate(295.546875,75 )" id="entity-Blog-b05be3bd-880d-48f4-a8f2-56486af01927"><rect height="134" width="159.4296875" y="0" x="0" class="er entityBox"/><text style="dominant-baseline: middle; text-anchor: middle; font-size: 12px;" transform="translate(79.71484375,12)" y="0" x="0" id="text-entity-Blog-b05be3bd-880d-48f4-a8f2-56486af01927" class="er entityLabel">Blog</text><rect height="22" width="53.6640625" y="24" x="0" class="er attributeBoxOdd"/><text style="dominant-baseline: middle; font-size: 10.2px;" transform="translate(5,35)" y="0" x="0" id="text-entity-Blog-b05be3bd-880d-48f4-a8f2-56486af01927-attr-1-type" class="er entityLabel">String</text><rect height="22" width="37.421875" y="24" x="53.6640625" class="er attributeBoxOdd"/><text style="dominant-baseline: middle; font-size: 10.2px;" transform="translate(58.6640625,35)" y="0" x="0" id="text-entity-Blog-b05be3bd-880d-48f4-a8f2-56486af01927-attr-1-name" class="er entityLabel">id</text><rect height="22" width="21.5625" y="24" x="91.0859375" class="er attributeBoxOdd"/><text style="dominant-baseline: middle; font-size: 10.2px;" transform="translate(96.0859375,35)" y="0" x="0" id="text-entity-Blog-b05be3bd-880d-48f4-a8f2-56486af01927-attr-1-key" class="er entityLabel">PK</text><rect height="22" width="46.78125" y="24" x="112.6484375" class="er attributeBoxOdd"/><text style="dominant-baseline: middle; font-size: 10.2px;" transform="translate(117.6484375,35)" y="0" x="0" id="text-entity-Blog-b05be3bd-880d-48f4-a8f2-56486af01927-attr-1-comment" class="er entityLabel"/><rect height="22" width="53.6640625" y="46" x="0" class="er attributeBoxEven"/><text style="dominant-baseline: middle; font-size: 10.2px;" transform="translate(5,57)" y="0" x="0" id="text-entity-Blog-b05be3bd-880d-48f4-a8f2-56486af01927-attr-2-type" class="er entityLabel">String</text><rect height="22" width="37.421875" y="46" x="53.6640625" class="er attributeBoxEven"/><text style="dominant-baseline: middle; font-size: 10.2px;" transform="translate(58.6640625,57)" y="0" x="0" id="text-entity-Blog-b05be3bd-880d-48f4-a8f2-56486af01927-attr-2-name" class="er entityLabel">title</text><rect height="22" width="21.5625" y="46" x="91.0859375" class="er attributeBoxEven"/><text style="dominant-baseline: middle; font-size: 10.2px;" transform="translate(96.0859375,57)" y="0" x="0" id="text-entity-Blog-b05be3bd-880d-48f4-a8f2-56486af01927-attr-2-key" class="er entityLabel"/><rect height="22" width="46.78125" y="46" x="112.6484375" class="er attributeBoxEven"/><text style="dominant-baseline: middle; font-size: 10.2px;" transform="translate(117.6484375,57)" y="0" x="0" id="text-entity-Blog-b05be3bd-880d-48f4-a8f2-56486af01927-attr-2-comment" class="er entityLabel"/><rect height="22" width="53.6640625" y="68" x="0" class="er attributeBoxOdd"/><text style="dominant-baseline: middle; font-size: 10.2px;" transform="translate(5,79)" y="0" x="0" id="text-entity-Blog-b05be3bd-880d-48f4-a8f2-56486af01927-attr-3-type" class="er entityLabel">String</text><rect height="22" width="37.421875" y="68" x="53.6640625" class="er attributeBoxOdd"/><text style="dominant-baseline: middle; font-size: 10.2px;" transform="translate(58.6640625,79)" y="0" x="0" id="text-entity-Blog-b05be3bd-880d-48f4-a8f2-56486af01927-attr-3-name" class="er entityLabel">image</text><rect height="22" width="21.5625" y="68" x="91.0859375" class="er attributeBoxOdd"/><text style="dominant-baseline: middle; font-size: 10.2px;" transform="translate(96.0859375,79)" y="0" x="0" id="text-entity-Blog-b05be3bd-880d-48f4-a8f2-56486af01927-attr-3-key" class="er entityLabel"/><rect height="22" width="46.78125" y="68" x="112.6484375" class="er attributeBoxOdd"/><text style="dominant-baseline: middle; font-size: 10.2px;" transform="translate(117.6484375,79)" y="0" x="0" id="text-entity-Blog-b05be3bd-880d-48f4-a8f2-56486af01927-attr-3-comment" class="er entityLabel">nullable</text><rect height="22" width="53.6640625" y="90" x="0" class="er attributeBoxEven"/><text style="dominant-baseline: middle; font-size: 10.2px;" transform="translate(5,101)" y="0" x="0" id="text-entity-Blog-b05be3bd-880d-48f4-a8f2-56486af01927-attr-4-type" class="er entityLabel">Json</text><rect height="22" width="37.421875" y="90" x="53.6640625" class="er attributeBoxEven"/><text style="dominant-baseline: middle; font-size: 10.2px;" transform="translate(58.6640625,101)" y="0" x="0" id="text-entity-Blog-b05be3bd-880d-48f4-a8f2-56486af01927-attr-4-name" class="er entityLabel">entry</text><rect height="22" width="21.5625" y="90" x="91.0859375" class="er attributeBoxEven"/><text style="dominant-baseline: middle; font-size: 10.2px;" transform="translate(96.0859375,101)" y="0" x="0" id="text-entity-Blog-b05be3bd-880d-48f4-a8f2-56486af01927-attr-4-key" class="er entityLabel"/><rect height="22" width="46.78125" y="90" x="112.6484375" class="er attributeBoxEven"/><text style="dominant-baseline: middle; font-size: 10.2px;" transform="translate(117.6484375,101)" y="0" x="0" id="text-entity-Blog-b05be3bd-880d-48f4-a8f2-56486af01927-attr-4-comment" class="er entityLabel"/><rect height="22" width="53.6640625" y="112" x="0" class="er attributeBoxOdd"/><text style="dominant-baseline: middle; font-size: 10.2px;" transform="translate(5,123)" y="0" x="0" id="text-entity-Blog-b05be3bd-880d-48f4-a8f2-56486af01927-attr-5-type" class="er entityLabel">DateTime</text><rect height="22" width="37.421875" y="112" x="53.6640625" class="er attributeBoxOdd"/><text style="dominant-baseline: middle; font-size: 10.2px;" transform="translate(58.6640625,123)" y="0" x="0" id="text-entity-Blog-b05be3bd-880d-48f4-a8f2-56486af01927-attr-5-name" class="er entityLabel">date</text><rect height="22" width="21.5625" y="112" x="91.0859375" class="er attributeBoxOdd"/><text style="dominant-baseline: middle; font-size: 10.2px;" transform="translate(96.0859375,123)" y="0" x="0" id="text-entity-Blog-b05be3bd-880d-48f4-a8f2-56486af01927-attr-5-key" class="er entityLabel"/><rect height="22" width="46.78125" y="112" x="112.6484375" class="er attributeBoxOdd"/><text style="dominant-baseline: middle; font-size: 10.2px;" transform="translate(117.6484375,123)" y="0" x="0" id="text-entity-Blog-b05be3bd-880d-48f4-a8f2-56486af01927-attr-5-comment" class="er entityLabel"/></g><rect height="14" width="35.28125" y="279.5" x="357.62109375" class="er relationshipLabelBox"/><text style="text-anchor: middle; dominant-baseline: middle; font-size: 12px;" y="286.5" x="375.26171875" id="rel1" class="er relationshipLabel">author</text></svg>